<svg xmlns="http://www.w3.org/2000/svg" viewBox="0 0 1798.4 1332.1"><defs><style>.cls-1{fill:#4951ec;}.cls-2{fill:#bed1f9;}.cls-3{fill:#dde8fe;}.cls-4{fill:#fb9390;}.cls-5{fill:#fa7167;}.cls-6{fill:#0b0754;}.cls-7{fill:#92b5f9;}.cls-8{fill:#ef7f7f;}.cls-9{fill:#f47458;}.cls-10{fill:#e8605d;}.cls-11{fill:#fff;}.cls-12{fill:#7c9af2;}.cls-13{fill:#b75742;}.cls-14{fill:#9bc1f9;}</style></defs><g id="Capa_2" data-name="Capa 2"><g id="Layer_1" data-name="Layer 1"><path class="cls-1" d="M1792.21,1320.29H69.94a5.84,5.84,0,0,0-5.84,5.7v.12a5.85,5.85,0,0,0,5.85,6H1792.21a5.91,5.91,0,1,0,0-11.81Z"/><path class="cls-2" d="M729.88,202.33a6.24,6.24,0,0,0,6,2.62c11.48-1.69,31.11,5.19,40.66,9.86l4.48,55c-8.68,6.15-26.93,16.11-38.54,16.3a6.24,6.24,0,0,0-5.53,3.56L718.4,328.91a6.24,6.24,0,0,0,.75,6.53c7.2,9.1,11.06,29.54,11.79,40.15L685.53,407c-9.67-4.43-27.42-15.26-33.39-25.22a6.24,6.24,0,0,0-5.84-3L603,382.26a6.22,6.22,0,0,0-5.28,3.91c-4.28,10.79-20,24.35-28.87,30.29L519,392.82c-1-10.59-.49-31.38,5.15-41.53a6.22,6.22,0,0,0-.32-6.56L499.16,309a6.24,6.24,0,0,0-6-2.62c-11.49,1.69-31.11-5.19-40.67-9.86l-4.47-55c8.67-6.14,26.93-16.11,38.54-16.29a6.22,6.22,0,0,0,5.52-3.56l18.59-39.22a6.24,6.24,0,0,0-.75-6.53c-7.21-9.1-11.06-29.54-11.79-40.15l45.41-31.39c9.66,4.44,27.42,15.27,33.39,25.23a6.23,6.23,0,0,0,5.84,3L626,129.1a6.22,6.22,0,0,0,5.28-3.91c4.28-10.8,20.05-24.35,28.87-30.29L710,118.54c1,10.58.49,31.38-5.15,41.52a6.23,6.23,0,0,0,.32,6.57Zm-119.77-.84a54.37,54.37,0,1,0,58.6,49.78A54.36,54.36,0,0,0,610.11,201.49Zm-2.82-34.76a89.24,89.24,0,1,0,96.18,81.72A89.24,89.24,0,0,0,607.29,166.73Z"/><path class="cls-3" d="M972.13,1198a8.25,8.25,0,0,0,1,8.64c9.53,12.08,14.6,39.15,15.55,53.2l-60.21,41.5c-12.79-5.89-36.29-20.27-44.18-33.47a8.24,8.24,0,0,0-7.73-4l-57.3,4.58a8.26,8.26,0,0,0-7,5.17c-5.69,14.29-26.6,32.22-38.29,40.07l-66.05-31.39c-1.29-14-.59-41.56,6.9-55a8.24,8.24,0,0,0-.41-8.69l-32.62-47.33a8.26,8.26,0,0,0-8-3.48c-15.22,2.22-41.2-6.93-53.85-13.13l-5.83-72.89c11.5-8.13,35.7-21.29,51.08-21.52a8.27,8.27,0,0,0,7.32-4.71l24.68-51.91a8.27,8.27,0,0,0-1-8.65c-9.53-12.07-14.6-39.15-15.55-53.2l60.21-41.49c12.79,5.89,36.29,20.26,44.18,33.47a8.26,8.26,0,0,0,7.73,4l57.3-4.59a8.26,8.26,0,0,0,7-5.17c5.69-14.29,26.6-32.22,38.29-40.07l66,31.4c1.29,14,.59,41.56-6.9,55a8.23,8.23,0,0,0,.41,8.69l32.62,47.34a8.26,8.26,0,0,0,8,3.47c15.22-2.22,41.2,6.93,53.85,13.13l5.83,72.89c-11.5,8.13-35.7,21.3-51.08,21.53a8.26,8.26,0,0,0-7.32,4.7Zm-78.17-138a72,72,0,1,0-18.43,100.17A72,72,0,0,0,894,1059.92Zm38-26.21a118.21,118.21,0,1,0-30.25,164.41A118.22,118.22,0,0,0,932,1033.71Z"/><path class="cls-4" d="M345.46,793.66a4.69,4.69,0,0,0-2.59,4.21c0,8.73-7.2,22.6-11.7,29.21l-41.43-2.56c-3.65-7.12-9.11-21.77-8-30.44a4.68,4.68,0,0,0-2.05-4.49l-27.2-18a4.68,4.68,0,0,0-4.94-.14c-7.55,4.38-23.18,5.06-31.15,4.47l-18.5-37.16c4.34-6.72,14.3-18.78,22.36-22.15a4.69,4.69,0,0,0,2.86-4l2-32.57a4.67,4.67,0,0,0-2.35-4.35c-7.57-4.34-16-17.54-19.45-24.74l22.94-34.6c8,.4,23.41,3,30.36,8.29a4.68,4.68,0,0,0,4.92.46l29.21-14.54a4.68,4.68,0,0,0,2.6-4.2c0-8.73,7.2-22.61,11.69-29.21l41.44,2.56c3.65,7.11,9.11,21.77,8,30.43a4.69,4.69,0,0,0,2.06,4.49l27.2,18a4.7,4.7,0,0,0,4.94.14c7.55-4.39,23.17-5.07,31.14-4.48l18.5,37.17C434,672.16,424,684.21,416,687.59a4.69,4.69,0,0,0-2.86,4l-2,32.57a4.7,4.7,0,0,0,2.34,4.35c7.58,4.34,16,17.53,19.45,24.73L410,787.88c-8-.4-23.41-3-30.36-8.29a4.69,4.69,0,0,0-4.92-.47Zm13.46-89a40.89,40.89,0,1,0-43.33,38.28A40.89,40.89,0,0,0,358.92,704.61Zm26.17,1.62A67.11,67.11,0,1,0,314,769.06,67.11,67.11,0,0,0,385.09,706.23Z"/><path class="cls-5" d="M410.54,311.77a7.68,7.68,0,0,0,6,5.46c14,2.61,34.14,18.45,43.4,27.69l-16.74,65.82c-12.54,3.7-37.76,8-51.35,3.6a7.65,7.65,0,0,0-7.85,1.94l-37.26,38.23a7.68,7.68,0,0,0-1.74,7.9c4.76,13.47,1.09,38.79-2.28,51.42l-65.37,18.42c-9.48-9-25.82-28.7-28.8-42.67a7.66,7.66,0,0,0-5.6-5.83L191.18,470.6a7.65,7.65,0,0,0-7.7,2.44c-9.29,10.86-33,20.34-45.68,23.74l-48.64-47.4c3.07-12.72,11.94-36.71,22.56-46.28a7.66,7.66,0,0,0,2.24-7.76L99.48,344a7.67,7.67,0,0,0-6-5.45c-14-2.62-34.14-18.45-43.39-27.69L66.85,245c12.55-3.7,37.77-8,51.35-3.61a7.67,7.67,0,0,0,7.85-1.93l37.26-38.24a7.64,7.64,0,0,0,1.74-7.89c-4.76-13.47-1.09-38.79,2.28-51.43l65.38-18.42c9.47,9,25.82,28.7,28.79,42.67a7.67,7.67,0,0,0,5.6,5.83l51.74,13.16a7.69,7.69,0,0,0,7.71-2.45c9.29-10.85,33.05-20.34,45.68-23.73l48.63,47.4c-3.07,12.71-11.94,36.71-22.55,46.27a7.68,7.68,0,0,0-2.25,7.77ZM271.49,263a66.89,66.89,0,1,0,48.35,81.3A66.87,66.87,0,0,0,271.49,263Zm10.57-41.58a109.78,109.78,0,1,0,79.35,133.45A109.79,109.79,0,0,0,282.06,221.46Z"/><rect class="cls-1" x="311.81" y="240.83" width="523.96" height="1079.64" rx="64.16" transform="translate(1147.58 1561.3) rotate(180)"/><rect class="cls-6" x="341.56" y="240.83" width="495.82" height="1079.64" rx="62.42" transform="translate(1178.94 1561.3) rotate(180)"/><rect class="cls-3" x="133.47" y="525.71" width="919.32" height="440.52" rx="59.67" transform="translate(1339.1 152.84) rotate(90)"/><path class="cls-7" d="M711.34,261.22c0,8.3-6.41,15-14.31,15s-14.31-6.72-14.31-15,6.4-15,14.31-15S711.34,252.92,711.34,261.22Z"/><path class="cls-7" d="M749,262c0,8.29-6.4,15-14.31,15s-14.31-6.73-14.31-15,6.41-15,14.31-15S749,253.74,749,262Z"/><path class="cls-6" d="M1700.79,658.1c5.51-26.9-7.17-53.58-31.39-63.6.16-15.31-4.79-34.7-15.23-45.19-20.59-20.68-59.88-27.92-75-1.56-20,11.33-35.73,35.88-29.76,58.24-19.39,20.11-12,56.49,16.24,73.68-.45,22.56,11.46,45,31.15,54.62,4.73,2.32,12.12,5.54,13.06,6.54-1.23-1.16,14.59,43,63.73,22.77C1723.72,743,1733.47,685,1700.79,658.1Z"/><path class="cls-4" d="M1464.64,917.57s3.26-3.5,4.26-4.75c1.16-1.46,4.31-6.1,4.31-6.1s10.2-16.67,8.89-17.3-4.68,1.28-5.68,2.09-2.23,1.67-3.23,2.49a2.55,2.55,0,0,1-3.54-.38c-1.11-1.14,2.15-5.23,3.56-6.42,4.39-3.72,18.17-11.35,19.59-12.22,1.69-1,14-33.1,19.07-43.77h0c7.82-17.7,15-36.28,15.77-38.16l9.84-81.93,32-8.32s-9.63,91.08-10.64,95.58c-.48,2.14-21.83,41.81-21.84,41.8-11.76,18.89-22.17,35.5-24.08,38.75,0,0-3.06,11.2-4.58,18.44s-5.87,13.33-6.62,15.3a47.44,47.44,0,0,1-8,14.18c-4.88,6-3-1.92-3-1.92s7-12.74,5.9-13.12c-.85-.29-4.27,6.9-9.6,13.59-1.37,1.72-2.73,3.42-4,5-3.31,4.06-6.79,3.19-4-1.61a52.83,52.83,0,0,1,4.17-6.28c1.62-2,2.46-4.26,3.57-6.11,2.18-3.67,3.83-6.32,3.62-6.32s-.35-1-1.86.74c-1.82,2.14-4.66,7.55-7.58,10.49-1.66,1.67-4.9,5.37-4.9,5.37s-5.93,5.43-6.33,5.17c-2.14-1.38,1-6.46,3.53-8.44,1-2.09,4.5-5.88,4.5-5.88s5.38-9.28,4.06-10.06c-1.08-.64-18.32,19.08-20.37,17.55C1459.73,923.74,1464.64,917.57,1464.64,917.57Z"/><path class="cls-8" d="M1496.63,888.58s-9.38,5.31-14.38.95a7.18,7.18,0,0,0,6,3.58C1492.37,893.16,1496.63,888.58,1496.63,888.58Z"/><path class="cls-4" d="M1599.51,929l-18.62,168.41s9.1,35.61,8,45.73S1568.65,1286,1568.65,1286l.87,7.29.46,21.59-71.56.55s15.08-6.84,36.18-20.35c1.56-1,5.16-4.18,6-10.53,5.64-40.91-5.51-177.37-5.51-177.37l-8.78-177.61Z"/><path class="cls-4" d="M1655.91,960c4,1,10.19,145.56,13.52,152,21.07,40.61,26.07,164.08,26.07,164.08l8.7,17.29-2,16.66s-15.72,9.12-26.76,3l1.71-16.68,1.3-22.29-53.16-153.83-29.08-156.91Z"/><path class="cls-6" d="M1519.71,1038.34l-2.53-99.73c-.44-28.18,8.84-55.22,20.24-80.89l24.12-41.06c7.77,2.49,12-20.77,20.22-19.84,6.16.7,10.38,2.14,16.09,2.48,10.78.64,17.33,22,28.87,20.62,0,.67,2.28,6.11,2.46,6.59,5.52,15.07,24.55,28.45,32.07,73.2,8.53,50.8,8.5,138.11,7.43,144.07C1587.05,1047.42,1567.59,1050.3,1519.71,1038.34Z"/><path class="cls-9" d="M1668.83,1050.19s0,0,0,0Z"/><path class="cls-5" d="M1570.33,1320.41h-73.88c-2.73-.25-3.39-2.51-2.45-3.91,2-2.86,10.57-5,20.26-9.54,17,1.82,52.58-9.72,55.26-13.71C1571.07,1301.23,1571.85,1320.07,1570.33,1320.41Z"/><path class="cls-5" d="M1704.15,1293.3s-6.56,18.85-13.65,18.31-13.31-15.41-13.31-15.41-2.66,12.51-1.41,19.4,11.35,14,18.26,10.88S1710.36,1307.44,1704.15,1293.3Z"/><path class="cls-10" d="M1566.83,752.12a110.54,110.54,0,0,1-20.15-4.76c-5.92-2.09-15.76-6.66-15.76-6.66s5.52-47,19.45-75.43c5.75-11.76,11.57-17.43,19.68-18.79C1570.12,646.47,1566.83,752.12,1566.83,752.12Z"/><path class="cls-5" d="M1549,699c2.08-7.63,6.74-17.65,9.4-24.56,4.52-11.73,5.86-22.7,9.84-27.4,2.15-2.52,29.71-2.15,33.09-2.48,1.4-.15,6.91.21,12.25.54v0c3.13.36,34.18,2.81,38.69,4.76,22.37,21.93,33.19,51.46,50,83.71,0,0-12.6,7.25-22.64,11.82-4.36,2-12.73,5.16-12.73,5.16s-10.6-18.5-16.6-26.58l-2.79-6.08c-.21-.16-1.22-1.24-1.51-.54-.44,1.09-19.32,102.67-19.32,102.67s-52.68,4.91-66.15-1.57c0,0-2.49-67.94-7.45-87.88C1551.2,723.18,1545.58,711.23,1549,699Z"/><path class="cls-4" d="M1617.3,613.82s-4.3,23.7-3.44,33-3.28,39.48-21.87,39.58-6-31.28-4.2-40.45,4.59-44.54,4.59-44.54Z"/><path class="cls-8" d="M1591.27,615c.29-7.76,1.11-13.49,1.11-13.49l24.92,12.36s-.88,4.85-1.76,11A22.55,22.55,0,0,1,1591.27,615Z"/><path class="cls-4" d="M1617.83,545A32,32,0,0,1,1634,560.11c5.7,11.41,7.58,43.34-15.39,55.6s-38.12-10.35-36.7-30.62S1589.71,538.25,1617.83,545Z"/><path class="cls-4" d="M1575.08,579.44c-.6,5.25,1.25,9.74,4.15,10s5.73-3.76,6.33-9-1.25-9.73-4.14-10S1575.69,574.18,1575.08,579.44Z"/><path class="cls-4" d="M1632,588.28c-2,5.09-1,10.43,2.25,11.93s7.54-1.4,9.55-6.49,1-10.43-2.24-11.93S1634,583.2,1632,588.28Z"/><path class="cls-4" d="M1595.45,849c-1.11.23-8.73.67-8.73.67s-11.17-6.62-12.77-3.49c-.49.94,11.58,7.67,11.58,7.67s11.66.37,14.45.29c5.19-.13,16.11-1.57,32.35-13.38,14.05-7,84.64-47.3,85.68-55,.62-4.53-10.13-28.17-20.53-49.57-4.6,2.5-11.73,6.32-17.9,9.14-2.92,1.32-7.62,3.18-10.41,4.26,6.75,12.74,13.13,25.85,12.3,28.57-.72,2.38-61,47.38-61,47.38l-12-1.61s-21.24,2.46-21.73,5,9,1.81,10.22,2.19a13.58,13.58,0,0,1,3.29,1.46c-3.48,1.63-9,4.24-12.13,4.36-7.13.26-15.38-.77-16.28.23-1,1.17,9.79,4.39,17.43,4.85,3.13.17,5-.77,6.39-.52,1.85.37-1.41,1.83-6.62,1.52-3-.19-8.17-1.8-11.45-2.25-5.38-.76-8.41-.34-8.85.12-.75.75,15.28,5.78,15.28,5.78s10.42,1.34,12.81,1.21C1596.77,847.83,1598.21,848.42,1595.45,849Z"/><path class="cls-4" d="M1435.89,1254.21s9.26,9.16,9.47,12.52.82,39.37-3,42.73-14.88,5.75-11.31,9.53c2.7,2.86,23.46,2.24,37.21,1.48,4-.23,9.06-32.71,10.65-37.48,2.31-6.93,10.63-22,8.53-26.86-1-2.35-8.62-7.72-15.52-12.23-7.26-4.75-14.2-15.33-14.2-15.33Z"/><path class="cls-4" d="M1312,1276.71s7.18,20.55,8.18,23.45c.07.22,3.16,13.39,3.16,16.8,0,12.84-57.13-10.9-44.33-16.59,1.16-.51,4.8-4.63,5.18-9,.58-6.74-4.82-15.18-4.82-15.18Z"/><path class="cls-6" d="M1233.17,826.15l-20.68,53.56s-13.5,127.84-5.64,204.36c3.28,32,74.43,203.32,74.43,203.32l35.34-5.05-47.33-202.87,17.41-77.58,24.65-153.35Z"/><path class="cls-6" d="M1330.6,828.94l17.75,59.65,27,180L1466.6,1237s-13.72,21.07-28.46,24.38l-129.54-170.2-70.2-213.07,2.46-47.33Z"/><path class="cls-4" d="M1128.21,882.84c12.8-5.13,13.16-2.76,14.79-3.46,1.92-.83,17.27-24.39,17.27-24.39s45.7-69.11,48-72.93l13.92-85,43.77-4.63s-17.59,92.06-19.35,96.7-74.35,90.69-80.5,98.48c0,0-3.92,12-6.63,19.53s-8.58,13.34-9.66,15.33a70.2,70.2,0,0,1-11.16,13.22c-6,5.63-2.89-2.53-2.89-2.53s9.32-12.48,8.21-13.06c-.85-.44-5.54,6.68-12.15,13-1.7,1.62-3.39,3.21-4.95,4.66-4.09,3.81-7.59,2.34-3.94-2.34a55.12,55.12,0,0,1,5.34-6c2-1.82,3.23-4.16,4.67-6,2.86-3.57,5-6.14,4.77-6.18s-.2-1.17-2.06.5c-2.23,2-6,7.31-9.56,10-2,1.52-6,5-6,5s-7,4.85-7.41,4.51c-2-1.81,2-6.74,5-8.44,1.34-2.08,5.62-5.57,5.62-5.57s7.06-9,5.8-10.08c-1-.85-22.12,17.46-24,15.5-1.56-1.6,4.53-7.4,4.53-7.4s4-3.22,5.19-4.39c1.45-1.38,5.46-5.83,5.46-5.83s13.25-16.16,12-17.05-5.43-1.84-6.59-1.13-2.62,3.16-3.79,3.87a3.41,3.41,0,0,1-4.29-.77c-1-1.39,3.33-7,3.33-7S1124.51,884.32,1128.21,882.84Z"/><path class="cls-7" d="M1213.41,723.42l50.37,5.21s2.31-41.85,2.31-61.81c0-24.22-2.7-55.06-5.59-54.39-8.1,1.89-18.34,6.06-24.83,15.1C1213.2,658.83,1213.41,723.42,1213.41,723.42Z"/><path class="cls-4" d="M1399.66,924.44c7.69-12.6,9.41-10.81,10.36-12.45,1.11-1.94-.13-31.93-.13-31.93s-3.08-88.4-3.41-93.17l-39.34-81.62,34-32s40.5,90,41.81,95.08-8,125.25-8.54,135.85c0,0,3.94,12.82,6.16,21s.79,16.91,1.07,19.3a77.35,77.35,0,0,1-1.44,18.46c-1.69,8.69-3.94-.3-3.94-.3s.34-16.65-.94-16.43c-1,.16-.65,9.25-2.43,18.88-.45,2.48-.91,4.92-1.35,7.16-1.15,5.88-5,6.87-4.73.53a60.7,60.7,0,0,1,.87-8.58c.57-2.84.21-5.63.34-8.09.26-4.89.51-8.45.31-8.34s-.87-.87-1.43,1.74c-.68,3.14-.69,10.13-2,14.68-.76,2.58-2,8.06-2,8.06s-3.43,7.93-3.94,7.88c-2.8-.24-1.94-6.32-.46-9.69-.12-2.63,1.38-8.36,1.38-8.36s.51-12.26-1.17-12.34c-.72,0-1.91,7.45-4.19,14.62-2.12,6.66-5.32,13-6.66,12.82-2.27-.37-.67-8-.67-8s1.39-5.3,1.72-7.09c.39-2.1,1.09-8.48,1.09-8.48s1.43-22.32-.17-22.26-5.67,1.91-6.22,3.27-.31,4.37-.87,5.73a3.57,3.57,0,0,1-4.06,2.1c-1.67-.56-1.42-8.14-1.42-8.14S1397.45,928.08,1399.66,924.44Z"/><path class="cls-6" d="M1471.5,1243.59s-19.5,59.81-27.85,62.75c-2.22.78-14.7,4-16.71,8.72a3,3,0,0,0-.13.42,5,5,0,0,0,5,5.82h39.63s5.62-26.84,7.85-38.64c0,0,11.77-28.81,10.47-31.43S1471.5,1243.59,1471.5,1243.59Z"/><path class="cls-6" d="M1326.6,1321.2l-6.41-21s-13.88,6-20.75,5-20.28-4.91-20.28-4.91c-27.42,9.15-49.88,13.59-45.79,21h93.23Z"/><path class="cls-8" d="M1148.13,889.44c-4.68,4.06-9.83,5.72-15.82,4.48C1137.92,898.13,1145.72,894.91,1148.13,889.44Z"/><path class="cls-2" d="M1324.19,610.25s26.66,3.71,33.68,8.86c7.9,5.8,32.38,32.87,32.38,32.87s-50.94,145.91-49,171.87,7.56,64.41,7.56,64.41-98.91,6.24-136.38-8.55c0,0,11.83-58.82,11.83-74.26s6.65-169.83,11.38-177.92,14.26-12.68,32.33-16.62S1324.19,610.25,1324.19,610.25Z"/><path class="cls-4" d="M1316.92,568.59l6.59,43.21s-24.1,51.44-38.48,47c-12.07-3.74-4.65-49.26-4.65-49.26s6.58-24.45,4.61-36.68S1316.92,568.59,1316.92,568.59Z"/><path class="cls-8" d="M1285,572.84c-2-12.23,31.93-4.25,31.93-4.25l.54,3.58a20,20,0,0,1-3.67,6c-7.58,8.09-19.41,12.95-29.64,13.32C1285.17,584.93,1285.8,577.86,1285,572.84Z"/><path class="cls-4" d="M1322.48,507.47c1-.35,7.68,49.21-5.08,62.84s-37.61,18.1-46.52,7.36c-9.86-11.88-9.37-65.14,10.47-79.16S1322.48,507.47,1322.48,507.47Z"/><path class="cls-6" d="M1288.89,472a55.18,55.18,0,0,1,28.91,16.37c7,.82,16.42,4.64,26.19,20.71,12,19.75,3.14,41.64-10.84,52.38s-13.83,23.21-13.83,23.21l-2.17-6.48a35.62,35.62,0,0,1-1.75-15.12,29.61,29.61,0,0,1,2.26-9.08c3.36-7.17-7.22-11.94-10.19-17.9-2.29-4.6-2.4-15.11-6-22.7l-4.3-5.8s-9.92-7.67-19.63-5.51S1269.23,468,1288.89,472Z"/><path class="cls-4" d="M1308.12,544.9c-.1,6.05,2.67,11,6.18,11.06s6.45-4.79,6.55-10.84-2.67-11-6.18-11.06S1308.22,538.86,1308.12,544.9Z"/><path class="cls-2" d="M1423.33,704.28l-44.58,34.79s-19.69-18.88-29.58-39.77c-10-21.14-1.24-82.84,9.42-80C1382.42,625.74,1423.33,704.28,1423.33,704.28Z"/><path class="cls-7" d="M1037,474.79h147.45A71.55,71.55,0,0,0,1256,403.24h0a71.54,71.54,0,0,0-71.54-71.54H1037a71.54,71.54,0,0,0-71.55,71.54h0A71.55,71.55,0,0,0,1037,474.79Z"/><polygon class="cls-7" points="1217.35 467.28 1233.03 550.49 1162.68 463.99 1217.35 467.28"/><path class="cls-11" d="M1213.94,386.87H1001.7a5.07,5.07,0,0,1,0-10.14h212.24a5.07,5.07,0,0,1,0,10.14Z"/><path class="cls-11" d="M1213.94,424.47H1001.7a5.07,5.07,0,0,1,0-10.13h212.24a5.07,5.07,0,1,1,0,10.13Z"/><rect class="cls-4" x="1090.76" y="128.71" width="100.46" height="100.46" rx="14.27"/><path class="cls-11" d="M1142.48,143.22c-12.72,0-23,12.57-23,28.09,0,11.58,13.09,31.52,19.73,40.88a4.51,4.51,0,0,0,7.42-.08c6.39-9.38,18.89-29.25,18.89-40.8C1165.5,155.79,1155.19,143.22,1142.48,143.22Zm1,34.53a11.43,11.43,0,1,1,10.66-10.66A11.44,11.44,0,0,1,1143.53,177.75Z"/><rect class="cls-2" x="351.5" width="134.82" height="134.82" rx="19.15"/><path class="cls-11" d="M470.36,52.91c1-4.34-3-9-9.09-10.11A233.69,233.69,0,0,0,381,42.34c-6.08,1-10.12,5.71-9.09,10.15h0c7.95,35.55,4.66,22.39,10.76,42.14a9.67,9.67,0,0,0,10.85,6.53h0a9.78,9.78,0,0,0,8.16-10.46c-.3-2.78-.59-5.57-.89-8.35-.37-3.18,2.29-6.1,5.95-6.37a197.17,197.17,0,0,1,28.86,0c3.65.27,6.32,3.15,6,6.31-.29,2.75-.58,5.51-.88,8.26a9.57,9.57,0,0,0,8.21,10.23h0a9.8,9.8,0,0,0,10.85-6.5C461.25,89.51,468.33,62,470.36,52.91Z"/><path class="cls-2" d="M392.81,50.9a6.87,6.87,0,0,1,3.51,1V46.41h-7v5.45A6.87,6.87,0,0,1,392.81,50.9Z"/><path class="cls-2" d="M385.92,57.79a6.87,6.87,0,0,1,1-3.51h-5.44v7h5.44A6.8,6.8,0,0,1,385.92,57.79Z"/><path class="cls-2" d="M392.81,64.68a6.87,6.87,0,0,1-3.51-1v5.44h7V63.72A6.87,6.87,0,0,1,392.81,64.68Z"/><path class="cls-2" d="M398.74,54.28a6.88,6.88,0,0,1,0,7h5.44v-7Z"/><path class="cls-2" d="M397,57.79a4.2,4.2,0,1,1-4.2-4.2A4.2,4.2,0,0,1,397,57.79Z"/><path class="cls-2" d="M459.55,58.34a9,9,0,1,1-9-9A9,9,0,0,1,459.55,58.34Z"/><rect class="cls-4" y="560.83" width="148.31" height="148.31" rx="21.06"/><circle class="cls-11" cx="75.84" cy="631.08" r="50.82" transform="translate(-424.03 238.47) rotate(-45)"/><path class="cls-4" d="M73.68,604.41l4.53,30.51a4.09,4.09,0,1,1-8.09,1.2,3.85,3.85,0,0,1,0-1.07Z"/><path class="cls-4" d="M74,632.28l35.91,3-35.82,4a3.53,3.53,0,0,1-.78-7A3.19,3.19,0,0,1,74,632.28Z"/><rect class="cls-7" x="98.04" y="831.09" width="149.56" height="149.56" rx="21.24"/><circle class="cls-11" cx="172.24" cy="904.68" r="50.16"/><path class="cls-7" d="M195.45,899.46l-28.79-16.62a4,4,0,0,0-6,3.49v33.25a4,4,0,0,0,6,3.49l28.79-16.62A4,4,0,0,0,195.45,899.46Z"/><rect class="cls-12" x="880.84" y="227.24" width="132.56" height="132.56" rx="18.82"/><path class="cls-11" d="M936,278.41l6.45-5.13a5.32,5.32,0,0,0,1.43-6.6c-2.27-4.43-6.61-11.6-13-16.57a5.33,5.33,0,0,0-6.55,0L913.06,259a5.36,5.36,0,0,0-2,4.69c.7,7.62,4.12,28.35,20.77,42.92,19,16.59,36.27,23.35,47.94,25.91a5.33,5.33,0,0,0,5.15-1.68l9.78-11.13a5.33,5.33,0,0,0,.15-6.87,41.86,41.86,0,0,0-20.42-13.66,5.31,5.31,0,0,0-5.83,1.94l-3.53,4.79a5.33,5.33,0,0,1-6.27,1.79c-4.86-1.94-13.56-7.3-23.81-22.07A5.32,5.32,0,0,1,936,278.41Z"/><polygon class="cls-6" points="779.41 659.79 709.54 603.17 679.02 658.17 735.23 711.75 779.41 659.79"/><path class="cls-6" d="M726.75,674.09A34,34,0,1,0,771,655.37,34,34,0,0,0,726.75,674.09Z"/><path class="cls-1" d="M932,553.3q2.91,2.88,5.85,5.74a3.78,3.78,0,0,0,5.34-.06q5.46-5.65,10.42-11.7a3.78,3.78,0,0,0-.65-5.37c-2.16-1.65-4.3-3.31-6.44-5a3.76,3.76,0,0,0-5.24.59q-4.44,5.38-9.32,10.45A3.79,3.79,0,0,0,932,553.3Z"/><path class="cls-1" d="M950.31,535.83l2.94,2.11a3.78,3.78,0,0,0,5.28-.88q5.52-7.87,10.2-16.22a3.77,3.77,0,0,0-1.57-5.16L964,514a3.76,3.76,0,0,0-5.05,1.5q-4.35,7.74-9.46,15.06A3.79,3.79,0,0,0,950.31,535.83Z"/><path class="cls-1" d="M763.88,694.9a126.4,126.4,0,0,1,10.4,10.56,28.45,28.45,0,0,0,36.65,5q34.56-22,69.11-44a28.5,28.5,0,0,0,7.6-40.85,233.77,233.77,0,0,0-38-41,28.48,28.48,0,0,0-41.7,5.1l-48.1,67.73A28.42,28.42,0,0,0,763.88,694.9Z"/><path class="cls-1" d="M870.81,600.64l10.72,11.26a28.14,28.14,0,0,0,39.78,1l11.9-11.32L888,554,871.6,569.61A22,22,0,0,0,870.81,600.64Z"/><rect class="cls-1" x="928.38" y="570.54" width="20.27" height="25.17" rx="3.99" transform="translate(1162.72 1665.07) rotate(-133.56)"/><path class="cls-1" d="M909.62,571l8.77,9.22a3.78,3.78,0,0,0,5.34.13l12.76-12.14a3.77,3.77,0,0,0,.14-5.33l-8.77-9.22a3.77,3.77,0,0,0-5.33-.14l-12.77,12.15A3.77,3.77,0,0,0,909.62,571Z"/><rect class="cls-1" x="951.99" y="554.32" width="15.72" height="21.04" rx="3.99" transform="translate(1211.76 1649.69) rotate(-133.55)"/><rect class="cls-1" x="975.5" y="531.99" width="11.17" height="24.75" rx="3.99" transform="translate(1262.61 1630.46) rotate(-133.56)"/><path class="cls-1" d="M906.17,544.09q4.29,1.9,8.62,3.75a3.8,3.8,0,0,1,1.7,5.56,41.07,41.07,0,0,1-9.08,10,3.8,3.8,0,0,1-5.09-.37l-6.59-6.93a3.78,3.78,0,0,1,.71-5.74,20.32,20.32,0,0,0,5.2-5.09A3.7,3.7,0,0,1,906.17,544.09Z"/><path class="cls-1" d="M910.56,542q2.82.76,5.65,1.47a3.79,3.79,0,0,0,4.63-3.08,31.29,31.29,0,0,0-.38-12.4,3.77,3.77,0,0,0-5.08-2.61q-2.68,1.1-5.4,2a3.76,3.76,0,0,0-2.38,4.35,18.58,18.58,0,0,1,.21,6.1A3.77,3.77,0,0,0,910.56,542Z"/><path class="cls-1" d="M906.47,526.75a90.89,90.89,0,0,0,8.12-5,29.8,29.8,0,0,0-12.69-10.65,4.61,4.61,0,0,0-6.23,3.09l-.06.19A4.67,4.67,0,0,0,898.2,520,19,19,0,0,1,906.47,526.75Z"/><path class="cls-1" d="M874.89,543.86a20.66,20.66,0,0,0,4.07,7.56,3.11,3.11,0,0,1-.16,4.29l-9.39,8.93a3.18,3.18,0,0,1-5-.83,65.33,65.33,0,0,1-6.37-17.68,3.16,3.16,0,0,1,2.87-3.78c3.54-.26,7.07-.57,10.6-.89A3.24,3.24,0,0,1,874.89,543.86Z"/><path class="cls-1" d="M869.64,538.66q-2.91-.2-5.82-.43a3.81,3.81,0,0,1-3.41-4.41,31.15,31.15,0,0,1,4.28-11.62,3.75,3.75,0,0,1,5.64-.85c1.46,1.27,3,2.49,4.48,3.68a3.73,3.73,0,0,1,.91,4.82,18.56,18.56,0,0,0-2.19,5.85A3.71,3.71,0,0,1,869.64,538.66Z"/><path class="cls-1" d="M878.75,525.63a91.93,91.93,0,0,1-6.1-7.36,29.55,29.55,0,0,1,15.26-6,4.67,4.67,0,0,1,5.06,4.92,1.48,1.48,0,0,0,0,.21,4.63,4.63,0,0,1-4.23,4.49A19,19,0,0,0,878.75,525.63Z"/><path class="cls-6" d="M498.46,700.25l28.93-89.06-13.81-7.85c-21.24-12.06-46.78.83-55.91,28.21L440,684.66Z"/><path class="cls-6" d="M471.52,654.88c-16.69-1-31.28,14.94-32.61,35.73s11.13,38.48,27.82,39.54,31.29-14.93,32.61-35.72S488.21,655.94,471.52,654.88Z"/><path class="cls-1" d="M414,897.61q-3.34-.63-6.71-1.23a3.14,3.14,0,0,0-3.65,2.52q-1.14,6.44-1.76,12.91a3.13,3.13,0,0,0,3,3.39l6.75.45a3.14,3.14,0,0,0,3.34-2.85q.57-5.77,1.58-11.54A3.14,3.14,0,0,0,414,897.61Z"/><path class="cls-1" d="M409.42,918.18l-3-.09a3.15,3.15,0,0,0-3.24,3.06q-.15,8,.5,15.93a3.12,3.12,0,0,0,3.48,2.82l3-.33a3.12,3.12,0,0,0,2.78-3.38q-.6-7.37-.46-14.78A3.15,3.15,0,0,0,409.42,918.18Z"/><path class="cls-1" d="M467.56,701.71a122.86,122.86,0,0,1-14.3-2.09,27.76,27.76,0,0,0-31.44,17.68L394,792.15a27.76,27.76,0,0,0,18.1,36.21,227.37,227.37,0,0,0,53.65,9.52,27.8,27.8,0,0,0,29.42-28.5q-1.2-40.46-2.41-80.92A27.65,27.65,0,0,0,467.56,701.71Z"/><path class="cls-1" d="M435.71,837.3l-12.57-2.77a23.44,23.44,0,0,0-27.94,17.78l-3,13.36,53.3,11.75L449.61,859A18.23,18.23,0,0,0,435.71,837.3Z"/><path class="cls-1" d="M421.16,875l-10.33-2.28a3.14,3.14,0,0,0-3.74,2.39l-3.18,14.31a3.15,3.15,0,0,0,2.39,3.74l10.33,2.28a3.14,3.14,0,0,0,3.74-2.39l3.18-14.32A3.13,3.13,0,0,0,421.16,875Z"/><path class="cls-1" d="M395.61,893.13c-2.23-.42-4.47-.83-6.7-1.23a3.14,3.14,0,0,0-3.66,2.52q-1.14,6.44-1.76,12.91a3.14,3.14,0,0,0,2.95,3.4q3.38.19,6.76.44a3.15,3.15,0,0,0,3.34-2.85q.56-5.77,1.57-11.53A3.15,3.15,0,0,0,395.61,893.13Z"/><path class="cls-1" d="M391.08,913.7l-3-.09a3.15,3.15,0,0,0-3.24,3.06c-.1,5.33.07,10.65.5,15.93a3.12,3.12,0,0,0,3.48,2.82l3-.32a3.13,3.13,0,0,0,2.78-3.39c-.39-4.9-.55-9.84-.46-14.78A3.15,3.15,0,0,0,391.08,913.7Z"/><path class="cls-1" d="M402.81,870.53l-10.32-2.28a3.15,3.15,0,0,0-3.75,2.39L385.57,885a3.13,3.13,0,0,0,2.39,3.74L398.28,891a3.15,3.15,0,0,0,3.75-2.39l3.17-14.31A3.14,3.14,0,0,0,402.81,870.53Z"/><path class="cls-1" d="M432.3,902.28q-3.35-.63-6.7-1.23a3.15,3.15,0,0,0-3.66,2.52q-1.14,6.43-1.75,12.91a3.13,3.13,0,0,0,2.94,3.4q3.39.2,6.76.44a3.14,3.14,0,0,0,3.34-2.85q.57-5.78,1.58-11.54A3.14,3.14,0,0,0,432.3,902.28Z"/><path class="cls-1" d="M427.77,922.85l-3-.09a3.14,3.14,0,0,0-3.23,3.06q-.15,8,.49,15.93a3.12,3.12,0,0,0,3.48,2.82l3-.32a3.15,3.15,0,0,0,2.79-3.39c-.4-4.9-.55-9.84-.47-14.78A3.14,3.14,0,0,0,427.77,922.85Z"/><path class="cls-1" d="M439.5,879.68l-10.32-2.28a3.16,3.16,0,0,0-3.75,2.39l-3.17,14.31a3.14,3.14,0,0,0,2.39,3.74L435,900.12a3.15,3.15,0,0,0,3.75-2.39l3.17-14.31A3.13,3.13,0,0,0,439.5,879.68Z"/><path class="cls-1" d="M451.7,884.37q3.35-.63,6.7-1.23a3.14,3.14,0,0,1,3.66,2.52q1.14,6.44,1.75,12.91a3.13,3.13,0,0,1-2.94,3.4c-2.25.14-4.51.28-6.76.44a3.14,3.14,0,0,1-3.34-2.85q-.56-5.77-1.57-11.53A3.15,3.15,0,0,1,451.7,884.37Z"/><path class="cls-1" d="M456.23,904.94l3-.09a3.16,3.16,0,0,1,3.24,3.07c.1,5.32-.07,10.64-.5,15.92a3.12,3.12,0,0,1-3.48,2.82l-3-.32a3.13,3.13,0,0,1-2.78-3.38c.39-4.91.55-9.85.46-14.79A3.15,3.15,0,0,1,456.23,904.94Z"/><path class="cls-1" d="M451.74,860.69c.05-.22.09-.43.13-.64l3.05-.67a3,3,0,0,1,3.6,2.29l3.25,14.64a3,3,0,0,1-2.3,3.6l-9.26,2a3,3,0,0,1-3-1Z"/><path class="cls-13" d="M706.9,426.59c0-148.67-203.85-148.7-203.87,0h-5.2c0-156.34,214.36-156.36,214.38,0Z"/><path class="cls-13" d="M595.27,309.76a29.15,29.15,0,0,1,.49,5.72c53.85-4.75,111.15,32.29,111.14,111.11h5.31C712.2,343.67,651.91,304.73,595.27,309.76Z"/><path class="cls-10" d="M595.43,309.53v5.75C649.89,312,698.92,349.47,698.91,427c1.82,0,16.11-.56,17.93-.56C716.83,345.05,652.6,306.22,595.43,309.53Z"/><path class="cls-5" d="M709.92,412.91c-13.19.33-23.15,21.37-22.24,46.67.86,24.1,11.26,44.19,23.65,45.57h0c17.92-2.18,39.3-18.34,38.61-38.27V451.39C750,430.65,729.49,412.42,709.92,412.91Z"/><path class="cls-6" d="M567.55,738.78h81.19a15.95,15.95,0,0,1,15.95,15.95v29.9a0,0,0,0,1,0,0H551.6a0,0,0,0,1,0,0v-29.9A15.95,15.95,0,0,1,567.55,738.78Z"/><path class="cls-6" d="M587.46,793.06c0,18.71-13.59,33.88-30.34,33.88s-30.34-15.17-30.34-33.88,13.58-33.88,30.34-33.88S587.46,774.35,587.46,793.06Z"/><path class="cls-6" d="M707.44,951.67c0,18.71-13.59,33.87-30.34,33.87s-30.34-15.16-30.34-33.87,13.58-33.88,30.34-33.88S707.44,933,707.44,951.67Z"/><ellipse class="cls-6" cx="675.72" cy="1122.59" rx="30.34" ry="33.88"/><path class="cls-6" d="M689.05,793.06c0,18.71-13.58,33.88-30.34,33.88s-30.34-15.17-30.34-33.88,13.58-33.88,30.34-33.88S689.05,774.35,689.05,793.06Z"/><path class="cls-1" d="M698.56,591.27a503.62,503.62,0,0,0-188.51,1,13.32,13.32,0,0,0-9.83,18.08q22.08,54.35,39.57,110.21a13.45,13.45,0,0,0,14.46,9.31l1.78-.21a19.17,19.17,0,0,1,21.31,19.05l3.9,64.84,52.72-1L638,752a19.17,19.17,0,0,1,22.55-18.87l.34.06a13.37,13.37,0,0,0,15.3-9.78Q691.46,665.63,709,608.3A13.36,13.36,0,0,0,698.56,591.27Z"/><path class="cls-1" d="M676.21,723.39Q691.46,665.63,709,608.3a13.36,13.36,0,0,0-10.39-17,503.62,503.62,0,0,0-188.51,1,13.32,13.32,0,0,0-9.83,18.08q22.08,54.35,39.57,110.21a13.45,13.45,0,0,0,14.46,9.31l1.78-.21c.36,0,.73-.07,1.1-.09l3.72-.81L655,732.91a19.14,19.14,0,0,1,5.53.2l.34.06,2.33.22A13.41,13.41,0,0,0,676.21,723.39Z"/><path class="cls-1" d="M696.78,941.5a391.14,391.14,0,0,1-52.59-.9c-8.05-.68-14.06-8.54-13.3-17.51q4.4-51.76,8.77-103.53c.71-8.45,7.19-14.77,14.79-14.51a283,283,0,0,0,31.77-.7c7.81-.61,14.65,5.78,15.38,14.48q4.46,52.56,8.9,105.13C711.28,933.11,705,941.09,696.78,941.5Z"/><path class="cls-1" d="M740.08,1109.5,717,989.73c-1.92-9.93-9.78-17-18.87-17H666c-9.09,0-16.95,7.09-18.87,17L624.06,1109.5h0v41.16c0,8.48,5.62,15.49,12.92,16.65a14,14,0,0,0,3.43.1c7.84-.73,13.76-8.29,13.76-17.07v-20.8c0-11.07,8-20,17.94-20h44.38c6.66,0,12.05,6,12.05,13.45v44.52h0A11.49,11.49,0,0,0,740.06,1156V1109.5Z"/><path class="cls-12" d="M698,1118.74s-33.78-.77-46.89,8.47c-6.67,4.71-9.22,16.19-10.13,26.34-1,10.67,3.67,21,11.84,26.62l13.17,9.07a28.06,28.06,0,0,0,15.64,5.06l31.63.39c13,.16,23.9-11.12,24.63-25.64.71-14,.48-29.85-3.34-36.45C727,1119.51,698,1118.74,698,1118.74Z"/><path class="cls-6" d="M578.23,952.05c-.28,18.71-14.09,33.68-30.84,33.43s-30.11-15.62-29.84-34.32,14.09-33.68,30.84-33.43S578.5,933.34,578.23,952.05Z"/><path class="cls-6" d="M566.69,1122.39c-.28,18.71-14.08,33.68-30.84,33.43s-30.11-15.61-29.83-34.32,14.08-33.67,30.83-33.43S567,1103.69,566.69,1122.39Z"/><path class="cls-1" d="M573.72,941.5a391.29,391.29,0,0,1-52.6-.9c-8-.68-14.05-8.54-13.29-17.51q4.38-51.76,8.77-103.53c.71-8.45,7.19-14.77,14.78-14.51a283.18,283.18,0,0,0,31.78-.7c7.81-.61,14.64,5.78,15.38,14.48Q583,871.39,587.44,924C588.22,933.11,582,941.09,573.72,941.5Z"/><path class="cls-1" d="M600.9,1109.81,579.58,989.7c-1.77-10-9.52-17.15-18.61-17.29l-32.1-.47c-9.09-.14-17.06,6.84-19.12,16.73L484.9,1108.1h0l-.6,41.15c-.13,8.48,5.39,15.57,12.68,16.83a13.39,13.39,0,0,0,3.42.16c7.85-.61,13.88-8.09,14-16.87l.3-20.79c.17-11.07,8.33-19.92,18.24-19.77l44.38.65c6.65.1,11.95,6.2,11.84,13.63l-.65,44.51h0a11.49,11.49,0,0,0,11.66-11.32l.68-46.47Z"/><path class="cls-12" d="M558.7,1118.43s-33.77-1.27-47,7.77c-6.74,4.61-9.47,16.06-10.53,26.19-1.11,10.65,3.36,21,11.45,26.79l13,9.27a28.24,28.24,0,0,0,15.57,5.29l31.62.85c13,.36,24.06-10.76,25-25.27.91-14,.92-29.84-2.81-36.5C587.65,1119.62,558.7,1118.43,558.7,1118.43Z"/><path class="cls-6" d="M604.93,608.92h0a21.38,21.38,0,0,1-21.38-21.38V547.37H626.3v40.17A21.38,21.38,0,0,1,604.93,608.92Z"/><ellipse class="cls-1" cx="602.86" cy="453.15" rx="115.84" ry="111.41"/><path class="cls-6" d="M679.62,488a292.42,292.42,0,0,0-120.85.45c-8.09,1.73-15.92-4.31-17.71-13.75q-2.26-11.89-4.52-23.78c-1.89-10,3.61-19.83,12.15-21.62a335.78,335.78,0,0,1,140.83.5c8.49,1.84,13.94,11.68,12.06,21.59q-2.18,11.43-4.34,22.83C695.46,483.66,687.69,489.7,679.62,488Z"/><path class="cls-14" d="M680.28,453.38c0,7.09-6,12.84-13.45,12.84s-13.44-5.75-13.44-12.84,6-12.83,13.44-12.83S680.28,446.29,680.28,453.38Z"/><path class="cls-10" d="M489,426.22c1.73,0,15.81,1.87,17.55,1.87,0-69.87,41.47-108.4,89.18-112.61a29.15,29.15,0,0,0-.49-5.72C545.11,314.21,489,352.79,489,426.22Z"/><path class="cls-5" d="M498.7,411.74c13.2.33,23.16,21.37,22.25,46.67-.86,24.1-11.26,44.19-23.65,45.57h0c-17.93-2.18-39.3-18.34-38.61-38.27V450.22C458.68,429.48,479.13,411.25,498.7,411.74Z"/><path class="cls-14" d="M569.08,461.76a4.43,4.43,0,0,1-3.25-7.44c5.9-6.37,21.1-15.49,36.33-4.46a4.44,4.44,0,1,1-5.2,7.19c-12.64-9.16-24.16,2.8-24.65,3.32A4.44,4.44,0,0,1,569.08,461.76Z"/><ellipse class="cls-1" cx="592.04" cy="1260.15" rx="100.32" ry="37.07"/></g></g></svg>