<svg xmlns="http://www.w3.org/2000/svg" xmlns:xlink="http://www.w3.org/1999/xlink" viewBox="0 0 211.15 208.57"><defs><style>.cls-1{isolation:isolate;}.cls-2,.cls-3{fill:#e5f6ff;}.cls-22,.cls-26,.cls-28,.cls-3,.cls-37,.cls-44,.cls-5,.cls-53,.cls-54,.cls-6,.cls-60,.cls-8{opacity:0.5;}.cls-4,.cls-5{fill:#fff;}.cls-11,.cls-13,.cls-22,.cls-26,.cls-44,.cls-55,.cls-56,.cls-6,.cls-60,.cls-8{mix-blend-mode:multiply;}.cls-6{fill:url(#Áåçûìÿííûé_ãðàäèåíò_123);}.cls-7{fill:url(#Áåçûìÿííûé_ãðàäèåíò_129);}.cls-8{fill:url(#Áåçûìÿííûé_ãðàäèåíò_416);}.cls-9{fill:url(#Áåçûìÿííûé_ãðàäèåíò_129-2);}.cls-10{fill:url(#Áåçûìÿííûé_ãðàäèåíò_28);}.cls-11,.cls-13,.cls-55,.cls-56{opacity:0.3;}.cls-11{fill:url(#Áåçûìÿííûé_ãðàäèåíò_153);}.cls-12{fill:url(#Áåçûìÿííûé_ãðàäèåíò_46);}.cls-13{fill:url(#Áåçûìÿííûé_ãðàäèåíò_153-2);}.cls-14{fill:url(#Áåçûìÿííûé_ãðàäèåíò_28-2);}.cls-15{fill:url(#Áåçûìÿííûé_ãðàäèåíò_91);}.cls-16{fill:url(#Áåçûìÿííûé_ãðàäèåíò_36);}.cls-17{fill:#6340a2;}.cls-18,.cls-19,.cls-32,.cls-33{opacity:0.72;}.cls-18,.cls-19,.cls-28,.cls-32,.cls-33,.cls-37,.cls-54{mix-blend-mode:screen;}.cls-18{fill:url(#Áåçûìÿííûé_ãðàäèåíò_134);}.cls-19{fill:url(#Áåçûìÿííûé_ãðàäèåíò_94);}.cls-20{fill:url(#Áåçûìÿííûé_ãðàäèåíò_46-2);}.cls-21{fill:url(#Áåçûìÿííûé_ãðàäèåíò_46-3);}.cls-22{fill:url(#Áåçûìÿííûé_ãðàäèåíò_416-2);}.cls-23{fill:url(#Áåçûìÿííûé_ãðàäèåíò_17);}.cls-24{fill:url(#Áåçûìÿííûé_ãðàäèåíò_264);}.cls-25{fill:url(#Áåçûìÿííûé_ãðàäèåíò_46-4);}.cls-26{fill:url(#Áåçûìÿííûé_ãðàäèåíò_416-3);}.cls-27{fill:url(#Áåçûìÿííûé_ãðàäèåíò_132);}.cls-28{fill:url(#Áåçûìÿííûé_ãðàäèåíò_54);}.cls-29{fill:url(#Áåçûìÿííûé_ãðàäèåíò_264-2);}.cls-30{fill:url(#Áåçûìÿííûé_ãðàäèåíò_28-3);}.cls-31{fill:url(#Áåçûìÿííûé_ãðàäèåíò_17-2);}.cls-32{fill:url(#Áåçûìÿííûé_ãðàäèåíò_94-2);}.cls-33{fill:url(#Áåçûìÿííûé_ãðàäèåíò_134-2);}.cls-34{fill:url(#Áåçûìÿííûé_ãðàäèåíò_17-3);}.cls-35{fill:url(#Áåçûìÿííûé_ãðàäèåíò_17-4);}.cls-36{fill:#2f95cd;}.cls-37{fill:url(#Áåçûìÿííûé_ãðàäèåíò_54-2);}.cls-38{fill:url(#Áåçûìÿííûé_ãðàäèåíò_28-4);}.cls-39{fill:url(#Áåçûìÿííûé_ãðàäèåíò_8);}.cls-40{fill:url(#Áåçûìÿííûé_ãðàäèåíò_65);}.cls-41{fill:url(#Áåçûìÿííûé_ãðàäèåíò_28-5);}.cls-42{fill:url(#Áåçûìÿííûé_ãðàäèåíò_65-2);}.cls-43{fill:url(#Áåçûìÿííûé_ãðàäèåíò_14);}.cls-44{fill:url(#Áåçûìÿííûé_ãðàäèåíò_416-4);}.cls-45{fill:#ff91ff;}.cls-46{fill:url(#Áåçûìÿííûé_ãðàäèåíò_28-6);}.cls-47{fill:url(#Áåçûìÿííûé_ãðàäèåíò_46-5);}.cls-48{fill:url(#Áåçûìÿííûé_ãðàäèåíò_65-3);}.cls-49{fill:url(#Áåçûìÿííûé_ãðàäèåíò_326);}.cls-50{fill:url(#Áåçûìÿííûé_ãðàäèåíò_322);}.cls-51{fill:url(#Áåçûìÿííûé_ãðàäèåíò_91-2);}.cls-52{fill:url(#Áåçûìÿííûé_ãðàäèåíò_326-2);}.cls-53{mix-blend-mode:color-dodge;fill:url(#Áåçûìÿííûé_ãðàäèåíò_54-3);}.cls-54{fill:url(#Áåçûìÿííûé_ãðàäèåíò_54-4);}.cls-55{fill:url(#Áåçûìÿííûé_ãðàäèåíò_153-3);}.cls-56{fill:url(#Áåçûìÿííûé_ãðàäèåíò_153-4);}.cls-57{fill:url(#Áåçûìÿííûé_ãðàäèåíò_46-6);}.cls-58{fill:url(#Áåçûìÿííûé_ãðàäèåíò_46-7);}.cls-59{fill:url(#Áåçûìÿííûé_ãðàäèåíò_28-7);}.cls-60{fill:url(#Áåçûìÿííûé_ãðàäèåíò_416-5);}.cls-61{fill:url(#Áåçûìÿííûé_ãðàäèåíò_46-8);}</style><radialGradient id="Áåçûìÿííûé_ãðàäèåíò_123" cx="95.82" cy="-1460.94" r="40.79" gradientTransform="translate(-7.29 524.56) scale(1.03 0.22)" gradientUnits="userSpaceOnUse"><stop offset="0" stop-color="#be9dea"/><stop offset="0.39" stop-color="#e0bff5"/><stop offset="1" stop-color="#fff"/></radialGradient><linearGradient id="Áåçûìÿííûé_ãðàäèåíò_129" x1="96.46" y1="176.62" x2="104.5" y2="148.75" gradientUnits="userSpaceOnUse"><stop offset="0" stop-color="#cbc1f7"/><stop offset="1" stop-color="#d4bef1"/></linearGradient><linearGradient id="Áåçûìÿííûé_ãðàäèåíò_416" x1="103.87" y1="170.94" x2="103.87" y2="146" gradientUnits="userSpaceOnUse"><stop offset="0" stop-color="#8da4e5"/><stop offset="1" stop-color="#755cbb"/></linearGradient><linearGradient id="Áåçûìÿííûé_ãðàäèåíò_129-2" x1="128.24" y1="138.21" x2="134.51" y2="88.26" xlink:href="#Áåçûìÿííûé_ãðàäèåíò_129"/><linearGradient id="Áåçûìÿííûé_ãðàäèåíò_28" x1="225.61" y1="228.5" x2="224.02" y2="212.95" gradientTransform="matrix(0.98, -0.21, 0.21, 0.98, -126.34, -35.79)" gradientUnits="userSpaceOnUse"><stop offset="0" stop-color="#be9dea"/><stop offset="1" stop-color="#9e8cef"/></linearGradient><linearGradient id="Áåçûìÿííûé_ãðàäèåíò_153" x1="127.68" y1="139.6" x2="127.68" y2="86.5" gradientUnits="userSpaceOnUse"><stop offset="0" stop-color="#9d68c2"/><stop offset="1" stop-color="#ccedff"/></linearGradient><linearGradient id="Áåçûìÿííûé_ãðàäèåíò_46" x1="-620.28" y1="80" x2="-610.48" y2="2" gradientTransform="matrix(-0.97, -0.25, -0.25, 0.97, -482.32, -73.58)" gradientUnits="userSpaceOnUse"><stop offset="0" stop-color="#cbc1f7"/><stop offset="1" stop-color="#e8dcf7"/></linearGradient><linearGradient id="Áåçûìÿííûé_ãðàäèåíò_153-2" x1="-596.51" y1="67.36" x2="-596.51" y2="27.08" gradientTransform="matrix(-0.97, -0.25, -0.25, 0.97, -482.32, -73.58)" xlink:href="#Áåçûìÿííûé_ãðàäèåíò_153"/><linearGradient id="Áåçûìÿííûé_ãðàäèåíò_28-2" x1="-643.34" y1="55.26" x2="-603.93" y2="55.26" gradientTransform="matrix(-0.97, -0.25, -0.25, 0.97, -482.32, -73.58)" xlink:href="#Áåçûìÿííûé_ãðàäèåíò_28"/><radialGradient id="Áåçûìÿííûé_ãðàäèåíò_91" cx="-626.61" cy="71.67" r="28.9" gradientTransform="matrix(-1, -0.25, -0.26, 0.97, -504.91, -73.58)" gradientUnits="userSpaceOnUse"><stop offset="0" stop-color="#45ffcd"/><stop offset="1" stop-color="#22e0ff"/></radialGradient><linearGradient id="Áåçûìÿííûé_ãðàäèåíò_36" x1="-601.04" y1="27.11" x2="-590.77" y2="27.11" gradientTransform="matrix(-0.97, -0.25, -0.25, 0.97, -482.32, -73.58)" gradientUnits="userSpaceOnUse"><stop offset="0" stop-color="#8879ea"/><stop offset="1" stop-color="#9e8cef"/></linearGradient><linearGradient id="Áåçûìÿííûé_ãðàäèåíò_134" x1="-641.35" y1="41.84" x2="-608.65" y2="41.84" gradientTransform="matrix(-0.97, -0.25, -0.25, 0.97, -482.32, -73.58)" gradientUnits="userSpaceOnUse"><stop offset="0"/><stop offset="1" stop-color="#d4e2ff"/></linearGradient><linearGradient id="Áåçûìÿííûé_ãðàäèåíò_94" x1="-623.29" y1="78.43" x2="-623.29" y2="74.68" gradientTransform="matrix(-0.97, -0.25, -0.25, 0.97, -482.32, -73.58)" gradientUnits="userSpaceOnUse"><stop offset="0" stop-color="#d4e2ff"/><stop offset="1"/></linearGradient><linearGradient id="Áåçûìÿííûé_ãðàäèåíò_46-2" x1="101.27" y1="207.47" x2="114.66" y2="161.1" gradientTransform="translate(-34.16 -14.48) rotate(-3.1)" xlink:href="#Áåçûìÿííûé_ãðàäèåíò_46"/><linearGradient id="Áåçûìÿííûé_ãðàäèåíò_46-3" x1="69.34" y1="114.74" x2="72.62" y2="88.64" gradientTransform="matrix(1, 0, 0, 1, 0, 0)" xlink:href="#Áåçûìÿííûé_ãðàäèåíò_46"/><linearGradient id="Áåçûìÿííûé_ãðàäèåíò_416-2" x1="101.34" y1="99.53" x2="106.08" y2="80.99" xlink:href="#Áåçûìÿííûé_ãðàäèåíò_416"/><linearGradient id="Áåçûìÿííûé_ãðàäèåíò_17" x1="-517.1" y1="120.65" x2="-517.1" y2="94.94" gradientTransform="matrix(-0.98, 0.22, 0.22, 0.98, -404.39, 24.64)" xlink:href="#Áåçûìÿííûé_ãðàäèåíò_91"/><linearGradient id="Áåçûìÿííûé_ãðàäèåíò_264" x1="-509.91" y1="111.77" x2="-509.91" y2="89.64" gradientTransform="matrix(-0.98, 0.22, 0.22, 0.98, -404.39, 24.64)" gradientUnits="userSpaceOnUse"><stop offset="0" stop-color="#b9acf4"/><stop offset="1" stop-color="#e1d1f5"/></linearGradient><linearGradient id="Áåçûìÿííûé_ãðàäèåíò_46-4" x1="97.72" y1="90.18" x2="108.26" y2="6.26" gradientTransform="matrix(1, 0, 0, 1, 0, 0)" xlink:href="#Áåçûìÿííûé_ãðàäèåíò_46"/><linearGradient id="Áåçûìÿííûé_ãðàäèåíò_416-3" x1="63.47" y1="69.92" x2="63.47" y2="52" xlink:href="#Áåçûìÿííûé_ãðàäèåíò_416"/><linearGradient id="Áåçûìÿííûé_ãðàäèåíò_132" x1="112.19" y1="83.89" x2="112.19" y2="11.51" gradientUnits="userSpaceOnUse"><stop offset="0" stop-color="#0665bd"/><stop offset="1" stop-color="#1a1f77"/></linearGradient><linearGradient id="Áåçûìÿííûé_ãðàäèåíò_54" x1="89.71" y1="78.89" x2="91.35" y2="65.79" gradientUnits="userSpaceOnUse"><stop offset="0"/><stop offset="1" stop-color="#6a9bff"/></linearGradient><linearGradient id="Áåçûìÿííûé_ãðàäèåíò_264-2" x1="-761.13" y1="59.68" x2="-761.13" y2="17.47" gradientTransform="matrix(-1, 0, 0, 1, -698.22, 0)" xlink:href="#Áåçûìÿííûé_ãðàäèåíò_264"/><linearGradient id="Áåçûìÿííûé_ãðàäèåíò_28-3" x1="-757.79" y1="58.07" x2="-757.79" y2="17.66" gradientTransform="matrix(-1, 0, 0, 1, -698.22, 0)" xlink:href="#Áåçûìÿííûé_ãðàäèåíò_28"/><linearGradient id="Áåçûìÿííûé_ãðàäèåíò_17-2" x1="-754.65" y1="59.08" x2="-754.65" y2="19.47" gradientTransform="matrix(-1, 0, 0, 1, -698.22, 0)" xlink:href="#Áåçûìÿííûé_ãðàäèåíò_91"/><linearGradient id="Áåçûìÿííûé_ãðàäèåíò_94-2" x1="-755.43" y1="57.78" x2="-755.43" y2="46.22" gradientTransform="matrix(-1, 0, 0, 1, -698.22, 0)" xlink:href="#Áåçûìÿííûé_ãðàäèåíò_94"/><linearGradient id="Áåçûìÿííûé_ãðàäèåíò_134-2" x1="-765.35" y1="26.71" x2="-741.97" y2="26.71" gradientTransform="matrix(-1, 0, 0, 1, -698.22, 0)" xlink:href="#Áåçûìÿííûé_ãðàäèåíò_134"/><linearGradient id="Áåçûìÿííûé_ãðàäèåíò_17-3" x1="311" y1="320.24" x2="311" y2="300.27" gradientTransform="matrix(0.84, -0.55, 0.55, 0.84, -297.22, -53.54)" xlink:href="#Áåçûìÿííûé_ãðàäèåíò_91"/><linearGradient id="Áåçûìÿííûé_ãðàäèåíò_17-4" x1="109.19" y1="246.27" x2="109.19" y2="223.81" gradientTransform="matrix(1.22, -0.6, 0.44, 0.9, -139.5, -96.77)" xlink:href="#Áåçûìÿííûé_ãðàäèåíò_91"/><linearGradient id="Áåçûìÿííûé_ãðàäèåíò_54-2" x1="78.9" y1="31.84" x2="138.73" y2="31.84" xlink:href="#Áåçûìÿííûé_ãðàäèåíò_54"/><linearGradient id="Áåçûìÿííûé_ãðàäèåíò_28-4" x1="14.77" y1="55.92" x2="19.71" y2="16.63" gradientTransform="translate(54.32 36.44) rotate(6.38)" xlink:href="#Áåçûìÿííûé_ãðàäèåíò_28"/><linearGradient id="Áåçûìÿííûé_ãðàäèåíò_8" x1="88.46" y1="-63.74" x2="88.46" y2="-75.07" gradientTransform="translate(3.22 156.44) rotate(-2.22)" gradientUnits="userSpaceOnUse"><stop offset="0" stop-color="#dd1a8f"/><stop offset="1" stop-color="#fe117e"/></linearGradient><linearGradient id="Áåçûìÿííûé_ãðàäèåíò_65" x1="192.29" y1="190.89" x2="192.29" y2="186.1" gradientTransform="translate(-147.89 -48.89) rotate(-15.46)" gradientUnits="userSpaceOnUse"><stop offset="0" stop-color="#d93de3"/><stop offset="1" stop-color="#ff6dba"/></linearGradient><linearGradient id="Áåçûìÿííûé_ãðàäèåíò_28-5" x1="41.96" y1="99.1" x2="41.33" y2="92.96" gradientTransform="matrix(1, 0, 0, 1, 0, 0)" xlink:href="#Áåçûìÿííûé_ãðàäèåíò_28"/><linearGradient id="Áåçûìÿííûé_ãðàäèåíò_65-2" x1="53.15" y1="124.95" x2="63.13" y2="74.81" gradientTransform="matrix(1, 0, 0, 1, 0, 0)" xlink:href="#Áåçûìÿííûé_ãðàäèåíò_65"/><linearGradient id="Áåçûìÿííûé_ãðàäèåíò_14" x1="70.95" y1="122.11" x2="74.35" y2="74.3" gradientUnits="userSpaceOnUse"><stop offset="0" stop-color="#a242ea"/><stop offset="1" stop-color="#fe117e"/></linearGradient><linearGradient id="Áåçûìÿííûé_ãðàäèåíò_416-4" x1="47.83" y1="109.37" x2="55.62" y2="109.37" xlink:href="#Áåçûìÿííûé_ãðàäèåíò_416"/><linearGradient id="Áåçûìÿííûé_ãðàäèåíò_28-6" x1="-64.49" y1="35.52" x2="-66.07" y2="20.06" gradientTransform="translate(117.98 92.61) rotate(13.58)" xlink:href="#Áåçûìÿííûé_ãðàäèåíò_28"/><linearGradient id="Áåçûìÿííûé_ãðàäèåíò_46-5" x1="-68.8" y1="33.79" x2="-66.84" y2="18.2" gradientTransform="translate(117.98 92.61) rotate(13.58)" xlink:href="#Áåçûìÿííûé_ãðàäèåíò_46"/><linearGradient id="Áåçûìÿííûé_ãðàäèåíò_65-3" x1="71.11" y1="95.29" x2="73.57" y2="82.96" gradientTransform="matrix(1, 0, 0, 1, 0, 0)" xlink:href="#Áåçûìÿííûé_ãðàäèåíò_65"/><linearGradient id="Áåçûìÿííûé_ãðàäèåíò_326" x1="72.23" y1="95.23" x2="73.11" y2="82.81" gradientUnits="userSpaceOnUse"><stop offset="0" stop-color="#b31a8f"/><stop offset="1" stop-color="#92117e"/></linearGradient><linearGradient id="Áåçûìÿííûé_ãðàäèåíò_322" x1="132.98" y1="174.57" x2="133.62" y2="165.48" gradientTransform="translate(-108.9 -52.69) rotate(-11.22)" gradientUnits="userSpaceOnUse"><stop offset="0" stop-color="#b31a8f"/><stop offset="1" stop-color="#fe117e"/></linearGradient><radialGradient id="Áåçûìÿííûé_ãðàäèåíò_91-2" cx="138.99" cy="171.15" r="3.12" gradientTransform="matrix(1.01, -0.19, 0.2, 0.98, -119.64, -52.69)" xlink:href="#Áåçûìÿííûé_ãðàäèåíò_91"/><linearGradient id="Áåçûìÿííûé_ãðàäèåíò_326-2" x1="56.25" y1="120.44" x2="69.68" y2="120.44" xlink:href="#Áåçûìÿííûé_ãðàäèåíò_326"/><linearGradient id="Áåçûìÿííûé_ãðàäèåíò_54-3" x1="61.19" y1="121.86" x2="61.19" y2="79.02" xlink:href="#Áåçûìÿííûé_ãðàäèåíò_54"/><linearGradient id="Áåçûìÿííûé_ãðàäèåíò_54-4" x1="126.71" y1="80.87" x2="129.07" y2="62.05" xlink:href="#Áåçûìÿííûé_ãðàäèåíò_54"/><linearGradient id="Áåçûìÿííûé_ãðàäèåíò_153-3" x1="94.4" y1="134.29" x2="94.4" y2="133.81" xlink:href="#Áåçûìÿííûé_ãðàäèåíò_153"/><linearGradient id="Áåçûìÿííûé_ãðàäèåíò_153-4" x1="109.99" y1="211.82" x2="109.99" y2="159.34" gradientTransform="translate(-34.16 -14.48) rotate(-3.1)" xlink:href="#Áåçûìÿííûé_ãðàäèåíò_153"/><linearGradient id="Áåçûìÿííûé_ãðàäèåíò_46-6" x1="52.24" y1="69.93" x2="52.24" y2="54.88" gradientTransform="matrix(1, 0, 0, 1, 0, 0)" xlink:href="#Áåçûìÿííûé_ãðàäèåíò_46"/><linearGradient id="Áåçûìÿííûé_ãðàäèåíò_46-7" x1="-620.67" y1="177.36" x2="-616.93" y2="147.56" gradientTransform="matrix(-1, 0.05, 0.05, 1, -476.87, 9.03)" xlink:href="#Áåçûìÿííûé_ãðàäèåíò_46"/><linearGradient id="Áåçûìÿííûé_ãðàäèåíò_28-7" x1="-616.78" y1="176.32" x2="-619.59" y2="148.7" gradientTransform="matrix(-1, 0.05, 0.05, 1, -476.87, 9.03)" xlink:href="#Áåçûìÿííûé_ãðàäèåíò_28"/><linearGradient id="Áåçûìÿííûé_ãðàäèåíò_416-5" x1="-616.1" y1="167.3" x2="-617.7" y2="151.62" gradientTransform="matrix(-1, 0.05, 0.05, 1, -476.87, 9.03)" xlink:href="#Áåçûìÿííûé_ãðàäèåíò_416"/><linearGradient id="Áåçûìÿííûé_ãðàäèåíò_46-8" x1="-613.89" y1="168.07" x2="-611.39" y2="148.15" gradientTransform="matrix(-1, 0.05, 0.05, 1, -476.87, 9.03)" xlink:href="#Áåçûìÿííûé_ãðàäèåíò_46"/></defs><g class="cls-1"><g id="Capa_2" data-name="Capa 2"><g id="chatbot"><path class="cls-2" d="M40.34,17.61C.8,29.89-13.66,90.11,15.12,122.52s65.78,28.71,87.42,42.64c27,17.35,53.86,21.4,75.16-13.45C207.15,103.54,105.14-2.52,40.34,17.61Z"/><path class="cls-2" d="M194.82,85.22a23.4,23.4,0,0,0-10.23,1.28,4.09,4.09,0,0,0-1.45.79,3.09,3.09,0,0,0-.62,2.95,6.61,6.61,0,0,0,5.68,4.69,8.38,8.38,0,0,0,7-2.85,5.31,5.31,0,0,0,1.52-3.85A3.08,3.08,0,0,0,194,85.41a.66.66,0,0,0,.39,1Z"/><path class="cls-2" d="M39.07,16.05a23.4,23.4,0,0,0-10.23,1.28,3.93,3.93,0,0,0-1.45.79,3.07,3.07,0,0,0-.62,2.95,6.61,6.61,0,0,0,5.67,4.69,8.41,8.41,0,0,0,7-2.85A5.26,5.26,0,0,0,41,19.06a3.08,3.08,0,0,0-2.73-2.82.66.66,0,0,0,.38,1Z"/><path class="cls-2" d="M186.89,92.17a4.32,4.32,0,0,0-4-1,4.18,4.18,0,0,0,.8,3.88,2.74,2.74,0,0,0,3.78.21c1-1,.23-3.06-1.18-3Z"/><path class="cls-2" d="M174.23,93.47A2.1,2.1,0,0,0,173.05,92a2,2,0,0,0-.33.79.73.73,0,0,0,.33.75c.35.18.78,0,1.12-.27l-.07.32Z"/><path class="cls-2" d="M176.72,92.71a1,1,0,0,1,.59,0,1.64,1.64,0,0,1-1.34.6c-.29,0-.64,0-.77-.23s0-.38,0-.58c0-.38-.42-.79-.17-1.1a.51.51,0,0,1,.62-.06,1.39,1.39,0,0,1,.44.49l.8,1.21Z"/><path class="cls-3" d="M144.08,99.6c-.35-.21-.78.32-.62.69a1.5,1.5,0,0,0,1,.68,1.37,1.37,0,0,0-.2-1.55Z"/><path class="cls-2" d="M145.53,113.88a.36.36,0,0,1,0,.51.72.72,0,0,1-.53.19.62.62,0,0,1-.33-.08.47.47,0,0,1-.14-.67.55.55,0,0,1,.71-.09.54.54,0,0,1,.14.69Z"/><path class="cls-2" d="M171.18,98.7a.56.56,0,0,0-.07-1,1,1,0,0,0-.43.46.46.46,0,0,0,.15.56.34.34,0,0,0,.5-.21Z"/><path class="cls-2" d="M178.66,93.32a1.59,1.59,0,0,0-.48-1.32l-.78.91a1.13,1.13,0,0,0-.28.48.64.64,0,0,0,.7.67.9.9,0,0,0,.77-.69Z"/><path class="cls-3" d="M149.54,110l-.29.29a.49.49,0,0,0,.54.31.4.4,0,0,0,.32-.49.36.36,0,0,0-.55-.15Z"/><path class="cls-2" d="M173.22,96.56c.06.25.46.27.67.11a7.45,7.45,0,0,0,.52-.6,1,1,0,0,1,.76-.26.49.49,0,0,1,.4.23.55.55,0,0,1,0,.31,2.81,2.81,0,0,1-.59,1.42,1.38,1.38,0,0,1-1.43.44,1,1,0,0,1-.68-.79,1,1,0,0,1,.38-1Z"/><path class="cls-2" d="M173.43,89.59a.65.65,0,0,0-.64-.62.94.94,0,0,0-.81.51c-.07.12-.1.3,0,.39a.41.41,0,0,0,.29,0l1.22-.22Z"/><path class="cls-2" d="M158.41,94.37a1.07,1.07,0,0,1-.86,1.47,2.56,2.56,0,0,1-.2-1.51,1,1,0,0,1,1.2-.69l.37.83Z"/><path class="cls-2" d="M210.76,85.12a.29.29,0,0,1,.37.18.62.62,0,0,1-.06.44.88.88,0,0,1-.2.3.57.57,0,0,1-.69,0,.67.67,0,0,1-.22-.65.46.46,0,0,1,.19-.3.26.26,0,0,1,.32,0Z"/><path class="cls-2" d="M167.68,97.29l-.32-.29a.9.9,0,0,0-.38.51c0,.21.21.45.4.35a.55.55,0,0,0,.15-.19l.38-.69Z"/><path class="cls-2" d="M160.58,100.14a2.92,2.92,0,0,0-1-.37.9.9,0,0,0-.9.41.72.72,0,0,0,0,.5,1,1,0,0,0,1.23.7,1,1,0,0,0,.65-1.22Z"/><path class="cls-2" d="M157.27,98.48l-.72,0a1.2,1.2,0,0,0,0,.53.7.7,0,0,0,.83-.45Z"/><path class="cls-2" d="M168.47,79.14A9,9,0,0,0,165,81.27a1.52,1.52,0,0,0-.39.52,1.23,1.23,0,0,0,.29,1.17,2.71,2.71,0,0,0,2.87.78,3.21,3.21,0,0,0,2.06-2.18,2.08,2.08,0,0,0-.12-1.64,1.26,1.26,0,0,0-1.48-.58.27.27,0,0,0,.32.31Z"/><path class="cls-2" d="M184.56,102.17a2.19,2.19,0,0,0-1.84-.48,2,2,0,0,0,.22.83.75.75,0,0,0,.72.4c.4-.06.6-.49.73-.86l.15.29Z"/><path class="cls-2" d="M180.61,104.77a.84.84,0,0,0-.54,0,.86.86,0,0,0-.36.37,7.55,7.55,0,0,1-.91,1.12l2.43-.28a.61.61,0,0,1,.19,0c.22.06.24.35.38.52s.63.15.92,0C184.77,105.37,181.59,105,180.61,104.77Z"/><path class="cls-2" d="M188,99.48a1.64,1.64,0,0,0-1.2-.78c0,.39,0,.79-.05,1.18a1,1,0,0,0,.07.55.67.67,0,0,0,1,.13.85.85,0,0,0,.19-1Z"/><path class="cls-2" d="M181.52,99.53a.65.65,0,0,0-.89-.12.89.89,0,0,0-.34.87c0,.14.11.3.26.3s.18-.07.25-.14l.84-.89Z"/><path class="cls-2" d="M182.19,93.91a2.74,2.74,0,0,0-1-.38.92.92,0,0,0-.9.41.73.73,0,0,0-.05.5,1,1,0,0,0,1.23.71,1,1,0,0,0,.65-1.23Z"/><path class="cls-2" d="M164.52,91.29c-.29.21-.23.64-.13,1s.22.73,0,1a.35.35,0,0,1-.25.12c-.25,0-.27-.37-.36-.6a2.62,2.62,0,0,0-.34-.48,1.14,1.14,0,0,1,0-1.31.69.69,0,0,1,.72.09.64.64,0,0,1,.21.67Z"/><path class="cls-2" d="M159.09,98.1c-.29.2-.23.63-.12,1s.21.74,0,1a.3.3,0,0,1-.25.12c-.25,0-.27-.36-.36-.59a2.21,2.21,0,0,0-.34-.48,1.14,1.14,0,0,1,0-1.31.69.69,0,0,1,.72.08.65.65,0,0,1,.21.68Z"/><path class="cls-2" d="M152.48,98.48a1.94,1.94,0,0,0-.86.13l-.12.07a.28.28,0,0,0,0,.25.56.56,0,0,0,.49.38.68.68,0,0,0,.58-.26.41.41,0,0,0,.12-.33.27.27,0,0,0-.24-.23s0,.09,0,.09Z"/><path class="cls-2" d="M194.11,91.62a2.21,2.21,0,0,0-1.85-.48,2.37,2.37,0,0,0,.22.83.79.79,0,0,0,.73.4c.4-.06.6-.49.73-.86l.15.29Z"/><path class="cls-2" d="M194.89,97.58a.57.57,0,0,0-.65-.73,1,1,0,0,0-.06.61.5.5,0,0,0,.47.36c.22,0,.39-.28.27-.45Z"/><path class="cls-2" d="M184.21,95a.57.57,0,0,0-.65-.73,1,1,0,0,0-.06.61.49.49,0,0,0,.47.36c.22,0,.39-.28.27-.45Z"/><path class="cls-2" d="M195.21,94.68c.2.17.53-.05.6-.3s0-.52.05-.78a.92.92,0,0,1,.45-.65.51.51,0,0,1,.46,0,.62.62,0,0,1,.2.25,2.67,2.67,0,0,1,.4,1.47,1.32,1.32,0,0,1-.87,1.19,1.11,1.11,0,0,1-1-.24,1,1,0,0,1-.28-1Z"/><path class="cls-2" d="M163.83,94.76c.2.17.53,0,.6-.3a6.68,6.68,0,0,0,0-.78.94.94,0,0,1,.46-.64.48.48,0,0,1,.46-.05.59.59,0,0,1,.2.24,2.82,2.82,0,0,1,.4,1.48,1.32,1.32,0,0,1-.87,1.18,1.1,1.1,0,0,1-1-.23,1,1,0,0,1-.29-1Z"/><path class="cls-2" d="M163.27,91.42c.21.16.54,0,.61-.3a6.91,6.91,0,0,0,0-.78,1,1,0,0,1,.46-.65.48.48,0,0,1,.46,0,.62.62,0,0,1,.2.25,2.76,2.76,0,0,1,.4,1.47,1.32,1.32,0,0,1-.87,1.19,1.09,1.09,0,0,1-1-.24,1,1,0,0,1-.29-1Z"/><path class="cls-2" d="M168.66,91.68c.2.17.53-.05.6-.3s0-.52.05-.78a.92.92,0,0,1,.45-.65.51.51,0,0,1,.46,0,.62.62,0,0,1,.2.25,2.76,2.76,0,0,1,.4,1.47,1.32,1.32,0,0,1-.87,1.19,1.1,1.1,0,0,1-1-.24,1,1,0,0,1-.29-1Z"/><path class="cls-2" d="M159.05,127.05c.21.17.54,0,.61-.3a6.68,6.68,0,0,0,0-.78,1,1,0,0,1,.46-.65.48.48,0,0,1,.46,0,.59.59,0,0,1,.2.24,2.79,2.79,0,0,1,.4,1.48,1.32,1.32,0,0,1-.87,1.18,1.07,1.07,0,0,1-1-.24,1,1,0,0,1-.29-1Z"/><path class="cls-2" d="M191.22,98.48l-.43,0a.86.86,0,0,0,0,.63c.11.19.45.24.53,0a.39.39,0,0,0,0-.24c0-.26-.08-.51-.13-.77Z"/><path class="cls-2" d="M166.28,111.57a2.92,2.92,0,0,0-1-.37.89.89,0,0,0-.9.41.72.72,0,0,0-.05.5,1,1,0,0,0,1.23.7,1,1,0,0,0,.65-1.22Z"/><path class="cls-2" d="M185.34,89.58a.7.7,0,0,1,.74.94,2,2,0,0,1-.8.22,1.21,1.21,0,0,1,0-.88Z"/><path class="cls-3" d="M162.09,110a1.71,1.71,0,0,0-.59-.11.5.5,0,0,0-.46.33c-.09.31.26.58.33.89s-.14.69,0,1a.59.59,0,0,0,.86,0,1.43,1.43,0,0,0,.29-.9,1.5,1.5,0,0,0-.13-.84.65.65,0,0,0-.74-.33Z"/><path class="cls-2" d="M171.46,94.8a4.14,4.14,0,0,0-2.59-3.06,4.23,4.23,0,0,0-1.75,3.58A2.67,2.67,0,0,0,170,97.68c1.4-.26,2.08-2.32.93-3.12Z"/><path class="cls-2" d="M185,86.43a.38.38,0,0,1-.31.41.79.79,0,0,1-.55-.16.7.7,0,0,1-.22-.26.48.48,0,0,1,.31-.61.54.54,0,0,1,.63.34.55.55,0,0,1-.32.63Z"/><path class="cls-2" d="M178.46,90.56c-.21.29,0,.67.21,1s.45.62.32.95a.28.28,0,0,1-.19.19c-.25.06-.38-.26-.54-.44a2.9,2.9,0,0,0-.49-.35,1.15,1.15,0,0,1-.42-1.24.69.69,0,0,1,.71-.15.66.66,0,0,1,.43.57Z"/><path class="cls-2" d="M171.92,99.64l-.41.07a.49.49,0,0,0,.24.56.42.42,0,0,0,.56-.21.35.35,0,0,0-.35-.44Z"/><path class="cls-2" d="M178.33,95.22a.27.27,0,0,1,.18.36.69.69,0,0,1-.31.32.91.91,0,0,1-.35.12.55.55,0,0,1-.55-.41.66.66,0,0,1,.23-.65.41.41,0,0,1,.33-.12c.12,0,.24.11.23.22Z"/><path class="cls-2" d="M183,105.82a4,4,0,0,0,.11-4,4.49,4.49,0,0,0-3.74,1.6,2.54,2.54,0,0,0,.6,3.62c1.22.69,3.13-.44,2.8-1.77Z"/><path class="cls-2" d="M116.54,179.34a4,4,0,0,0,.11-4,4.46,4.46,0,0,0-3.74,1.59,2.55,2.55,0,0,0,.59,3.62c1.23.69,3.14-.43,2.81-1.77Z"/><path class="cls-2" d="M189.58,97.11c-.35-.21-.77.32-.61.69a1.5,1.5,0,0,0,1,.68,1.37,1.37,0,0,0-.2-1.55Z"/><path class="cls-2" d="M180.44,85.47l-.4.07a.47.47,0,0,0,.24.56.44.44,0,0,0,.56-.21.36.36,0,0,0-.35-.45Z"/><path class="cls-2" d="M180.5,92.77a10.16,10.16,0,0,0-4.45.43,1.86,1.86,0,0,0-.64.33,1.32,1.32,0,0,0-.3,1.27,2.85,2.85,0,0,0,2.39,2.1,3.63,3.63,0,0,0,3.09-1.15,2.27,2.27,0,0,0,.71-1.65,1.33,1.33,0,0,0-1.15-1.25.28.28,0,0,0,.15.45Z"/><path class="cls-2" d="M175.89,116.41a4.31,4.31,0,0,0-4-1,4.21,4.21,0,0,0,.81,3.88,2.74,2.74,0,0,0,3.78.21c1-1,.23-3.06-1.19-3Z"/><path class="cls-2" d="M154.9,100.21a2.21,2.21,0,0,0-1.84-.48,2.13,2.13,0,0,0,.22.83.77.77,0,0,0,.73.4c.4-.06.6-.49.73-.86l.15.29Z"/><path class="cls-2" d="M151,102.81a.84.84,0,0,0-.54,0,.86.86,0,0,0-.37.36,7.48,7.48,0,0,1-.9,1.12l2.42-.27a.45.45,0,0,1,.2,0c.21.06.23.35.38.52s.62.15.91,0C155.12,103.41,151.93,103.07,151,102.81Z"/><path class="cls-2" d="M176.85,90.38l-.72,0a1.13,1.13,0,0,0,.86,1c.47.07,1-.44.75-.85s-.46-.6-.2-.73Z"/><path class="cls-2" d="M161.9,104a1,1,0,0,1,.59,0,1.7,1.7,0,0,1-1.35.6c-.28,0-.64,0-.77-.24s0-.38,0-.57c0-.39-.42-.8-.18-1.1a.51.51,0,0,1,.62-.06,1.38,1.38,0,0,1,.45.48c.26.41.53.81.79,1.21Z"/><path class="cls-2" d="M163.61,111.4c-.35-.22-.78.31-.62.68a1.5,1.5,0,0,0,1,.68,1.37,1.37,0,0,0-.2-1.55Z"/><path class="cls-3" d="M155.2,108.67a.36.36,0,0,1,0,.51.73.73,0,0,1-.54.19.64.64,0,0,1-.33-.08.46.46,0,0,1-.13-.67.55.55,0,0,1,.71-.09.54.54,0,0,1,.14.69Z"/><path class="cls-2" d="M155.69,106.17a.57.57,0,0,0-.65-.73,1,1,0,0,0-.06.61.49.49,0,0,0,.47.36c.22,0,.39-.28.27-.45Z"/><path class="cls-2" d="M158.35,97.52a1.65,1.65,0,0,0-1.19-.78l-.06,1.19a1,1,0,0,0,.08.54.67.67,0,0,0,1,.14.9.9,0,0,0,.19-1Z"/><path class="cls-3" d="M158.78,113.12a.73.73,0,0,1,.21.76.75.75,0,0,1-.64.49c-.2,0-.44-.1-.42-.29a.4.4,0,0,1,.1-.22l.66-.84.13.13Z"/><path class="cls-3" d="M157.23,118.41c-.29.21-.23.64-.12,1s.21.73,0,1a.33.33,0,0,1-.25.12c-.25,0-.27-.37-.36-.6a2.21,2.21,0,0,0-.34-.48,1.14,1.14,0,0,1,0-1.31.69.69,0,0,1,.72.09.64.64,0,0,1,.21.67Z"/><path class="cls-3" d="M165,87.75c-.29.21-.23.64-.12,1s.21.73,0,1a.3.3,0,0,1-.25.12c-.25,0-.27-.37-.36-.6a2.21,2.21,0,0,0-.34-.48,1.14,1.14,0,0,1,0-1.31.69.69,0,0,1,.72.09.65.65,0,0,1,.21.68Z"/><path class="cls-3" d="M153.8,117.4l-.41-.07a.48.48,0,0,0,0,.61.43.43,0,0,0,.6,0,.35.35,0,0,0-.18-.53Z"/><path class="cls-2" d="M156,103.27c.2.17.53,0,.6-.3s0-.52,0-.78a.94.94,0,0,1,.45-.65.48.48,0,0,1,.46,0,.59.59,0,0,1,.2.24,2.71,2.71,0,0,1,.4,1.48,1.32,1.32,0,0,1-.87,1.18,1.08,1.08,0,0,1-1-.24,1,1,0,0,1-.29-1Z"/><path class="cls-2" d="M151.87,97.57a.67.67,0,0,0-.9-.12.9.9,0,0,0-.33.87c0,.14.11.31.26.31a.39.39,0,0,0,.25-.15l.84-.89Z"/><path class="cls-2" d="M167.54,107.21a1.05,1.05,0,0,1-.86,1.46,2.53,2.53,0,0,1-.2-1.5,1,1,0,0,1,1.2-.69c.13.28.25.55.38.82Z"/><path class="cls-3" d="M152,107.08l-.43,0a.86.86,0,0,0,0,.63c.11.19.45.24.53,0a.48.48,0,0,0,0-.24c0-.25-.08-.51-.13-.76Z"/><path class="cls-2" d="M186.89,92.44a2.74,2.74,0,0,0-1-.38.9.9,0,0,0-.9.41.73.73,0,0,0,0,.5,1,1,0,0,0,1.23.7,1,1,0,0,0,.65-1.22Z"/><path class="cls-2" d="M176.8,110.27l-.72,0a1.2,1.2,0,0,0,0,.53.7.7,0,0,0,.83-.45Z"/><path class="cls-2" d="M205.36,90a.36.36,0,0,1,0,.51.69.69,0,0,1-.54.18.64.64,0,0,1-.33-.07.46.46,0,0,1-.13-.67.52.52,0,0,1,.85.6Z"/><path class="cls-2" d="M171.79,107.16l-.72,0a1.35,1.35,0,0,0,0,.53.68.68,0,0,0,.83-.45Z"/><path class="cls-2" d="M169.67,88.16c-.14-.22-.52-.11-.67.11s-.16.5-.28.73a.93.93,0,0,1-.62.49.49.49,0,0,1-.46-.08.62.62,0,0,1-.12-.29,2.83,2.83,0,0,1,.07-1.53,1.35,1.35,0,0,1,1.19-.88,1.08,1.08,0,0,1,.91.52,1,1,0,0,1,0,1Z"/><path class="cls-2" d="M181.37,96.18a1.57,1.57,0,0,0,.53.27.51.51,0,0,0,.54-.18c.18-.28-.07-.63-.05-1s.35-.61.26-.93a.58.58,0,0,0-.82-.24,1.44,1.44,0,0,0-.56.78,1.64,1.64,0,0,0-.13.84.64.64,0,0,0,.61.52Z"/><path class="cls-2" d="M165.89,97.31a8.15,8.15,0,0,0,3.35-1.4,1.31,1.31,0,0,0,.41-.4,1.09,1.09,0,0,0-.08-1.06,2.37,2.37,0,0,0-2.4-1.06A2.9,2.9,0,0,0,165.06,95a1.84,1.84,0,0,0-.12,1.45,1.11,1.11,0,0,0,1.21.71.24.24,0,0,0-.24-.32Z"/><path class="cls-2" d="M167.16,88.78a.75.75,0,0,0-.25-.47.88.88,0,0,0-.51-.13A7.91,7.91,0,0,1,165,88l1.46,1.9a.68.68,0,0,1,.09.17c.05.21-.2.37-.27.58s.17.59.45.76C168.69,92.57,167.41,89.72,167.16,88.78Z"/><path class="cls-2" d="M165.75,97.05l-.4-.1a.47.47,0,0,0,0,.61.42.42,0,0,0,.6,0,.35.35,0,0,0-.14-.54Z"/><path class="cls-2" d="M164,90.88a.62.62,0,0,0-.34-.81,1,1,0,0,0-.94.15c-.12.09-.22.24-.15.37a.36.36,0,0,0,.26.14L164,91Z"/><path class="cls-2" d="M164.14,95.19a2.06,2.06,0,0,0-.49-1.79,2.12,2.12,0,0,0-.63.6.72.72,0,0,0,0,.81c.25.3.74.26,1.13.19l-.18.27Z"/><path class="cls-2" d="M162.78,97.77a.93.93,0,0,1,.26.51,1.65,1.65,0,0,1-1.2-.83c-.17-.23-.33-.53-.17-.77s.33-.2.49-.32c.32-.22.5-.75.89-.69a.48.48,0,0,1,.37.49,1.25,1.25,0,0,1-.22.61L162.51,98Z"/><path class="cls-2" d="M166.83,91.56a1.55,1.55,0,0,0,.1-1.39l-1.09.54a1,1,0,0,0-.45.33.63.63,0,0,0,.37.88.91.91,0,0,0,1-.33Z"/><path class="cls-2" d="M160.52,92.45c-.05.25.3.42.56.36a6.91,6.91,0,0,0,.72-.36,1,1,0,0,1,.81.06.47.47,0,0,1,.27.37.56.56,0,0,1-.12.29,2.88,2.88,0,0,1-1.12,1.07,1.4,1.4,0,0,1-1.49-.14,1,1,0,0,1,.44-1.72Z"/><path class="cls-2" d="M175.9,100.36a2.48,2.48,0,0,0-.15-1,.9.9,0,0,0-.82-.55.78.78,0,0,0-.47.21,1,1,0,0,0,0,1.38,1,1,0,0,0,1.42-.06Z"/><path class="cls-2" d="M176.9,92.78a2.06,2.06,0,0,0-.49-1.79,2.12,2.12,0,0,0-.63.6.72.72,0,0,0,0,.81c.25.3.74.26,1.13.18l-.18.27Z"/><path class="cls-2" d="M161.79,98.52c-.31.19-.28.62-.2,1s.16.74-.09,1a.28.28,0,0,1-.26.1c-.25,0-.24-.38-.31-.62a2.88,2.88,0,0,0-.3-.5,1.13,1.13,0,0,1,.12-1.3.68.68,0,0,1,.71.13.64.64,0,0,1,.16.69Z"/><path class="cls-2" d="M189.21,101.71l-.38.16a.49.49,0,0,0,.37.49.43.43,0,0,0,.5-.33.37.37,0,0,0-.45-.36Z"/><path class="cls-2" d="M169.32,93.76l-.17-.38a1,1,0,0,0-.57.32c-.11.19,0,.5.23.47a.42.42,0,0,0,.22-.11l.62-.49Z"/><path class="cls-4" d="M38.18,142.75a16,16,0,0,0,7,1,2.82,2.82,0,0,0,1.11-.26,2.1,2.1,0,0,0,1-1.82,4.4,4.4,0,0,0-2.81-4.11,5.77,5.77,0,0,0-5.16.59,3.68,3.68,0,0,0-1.74,2.25,2,2,0,0,0,1.25,2.34.43.43,0,0,0,0-.74Z"/><path class="cls-4" d="M44.73,139.64A2.87,2.87,0,0,0,47.14,141a2.84,2.84,0,0,0,.22-2.69,1.85,1.85,0,0,0-2.43-.82,1.25,1.25,0,0,0,.19,2.21Z"/><path class="cls-4" d="M53.28,141.09a1.38,1.38,0,0,0,.49,1.17,1.46,1.46,0,0,0,.37-.45.5.5,0,0,0-.07-.55c-.2-.19-.53-.12-.79,0l.1-.2Z"/><path class="cls-4" d="M51.49,141.14a.75.75,0,0,1-.38-.13,1.16,1.16,0,0,1,1-.15c.2,0,.42.11.46.3s-.06.25-.08.38.12.6-.1.75a.34.34,0,0,1-.42-.07,1,1,0,0,1-.19-.4l-.29-.94Z"/><path class="cls-5" d="M74.23,142.56c.19.2.57-.07.54-.34s-.28-.46-.51-.62a.93.93,0,0,0-.17,1.05Z"/><path class="cls-4" d="M76.05,132.93a.24.24,0,0,1,.09-.33.53.53,0,0,1,.39,0,.64.64,0,0,1,.2.11.32.32,0,0,1,0,.47.35.35,0,0,1-.44-.55Z"/><path class="cls-4" d="M56.29,138.22a.38.38,0,0,0-.14.65.74.74,0,0,0,.37-.22.32.32,0,0,0,0-.4.22.22,0,0,0-.36.05Z"/><path class="cls-4" d="M50.35,140.39a1,1,0,0,0,0,1l.69-.46a.78.78,0,0,0,.28-.26.44.44,0,0,0-.33-.57.63.63,0,0,0-.64.31Z"/><path class="cls-5" d="M72.66,134.77l.24-.14a.33.33,0,0,0-.29-.3.27.27,0,0,0-.3.26.24.24,0,0,0,.33.2Z"/><path class="cls-4" d="M54.54,139.25c0-.18-.25-.26-.42-.19a3.29,3.29,0,0,0-.46.3.7.7,0,0,1-.55,0,.29.29,0,0,1-.21-.22A.35.35,0,0,1,53,139a2,2,0,0,1,.66-.82.94.94,0,0,1,1,0,.69.69,0,0,1,.29.64.71.71,0,0,1-.44.55Z"/><path class="cls-4" d="M53.05,143.78a.42.42,0,0,0,.3.52.62.62,0,0,0,.62-.18c.07-.07.13-.18.07-.26a.22.22,0,0,0-.19-.07l-.84-.08Z"/><path class="cls-4" d="M63.82,143.38a.73.73,0,0,1,.85-.8,1.69,1.69,0,0,1-.16,1,.65.65,0,0,1-.92.23c0-.2-.06-.4-.08-.6Z"/><path class="cls-4" d="M27.71,139.92a.19.19,0,0,1-.21-.19.43.43,0,0,1,.13-.27.52.52,0,0,1,.19-.17.4.4,0,0,1,.45.14.46.46,0,0,1,0,.47.28.28,0,0,1-.17.15.18.18,0,0,1-.21-.09Z"/><path class="cls-4" d="M58.31,139.78l.15.25a.6.6,0,0,0,.35-.27c.06-.13-.05-.33-.19-.3a.36.36,0,0,0-.14.1l-.38.38Z"/><path class="cls-4" d="M63.52,139.2a1.57,1.57,0,0,0,.57.42.62.62,0,0,0,.67-.1.54.54,0,0,0,.13-.32.67.67,0,1,0-1.34,0Z"/><path class="cls-4" d="M65.36,140.9l.48.1a.74.74,0,0,0,.09-.36.47.47,0,0,0-.63.15Z"/><path class="cls-4" d="M54.27,151.54a6.4,6.4,0,0,0,2.71-.76,1.2,1.2,0,0,0,.35-.28.82.82,0,0,0,0-.82,1.81,1.81,0,0,0-1.73-1,2.26,2.26,0,0,0-1.77,1,1.46,1.46,0,0,0-.25,1.1.84.84,0,0,0,.86.65.18.18,0,0,0-.14-.26Z"/><path class="cls-4" d="M48.19,133.51a1.47,1.47,0,0,0,1.12.65,1.42,1.42,0,0,0,0-.58.51.51,0,0,0-.4-.4c-.27,0-.48.21-.64.43l0-.22Z"/><path class="cls-4" d="M51.28,132.52a.59.59,0,0,0,.35.12.58.58,0,0,0,.31-.18,5.88,5.88,0,0,1,.81-.57l-1.64-.26a.28.28,0,0,1-.13,0c-.13-.08-.09-.28-.15-.41s-.38-.21-.6-.16C48.67,131.37,50.69,132.18,51.28,132.52Z"/><path class="cls-4" d="M45.41,134.65a1.08,1.08,0,0,0,.63.72l.27-.76a.8.8,0,0,0,.06-.37.46.46,0,0,0-.62-.27.62.62,0,0,0-.32.63Z"/><path class="cls-4" d="M28.77,134.66l.24-.14a.33.33,0,0,0-.29-.3.27.27,0,0,0-.3.26.24.24,0,0,0,.33.2Z"/><path class="cls-4" d="M49.67,135.8a.45.45,0,0,0,.56.24.63.63,0,0,0,.39-.51c0-.1,0-.22-.11-.25s-.13,0-.19.05l-.73.43Z"/><path class="cls-4" d="M48.14,139.36a2,2,0,0,0,.57.42.62.62,0,0,0,.67-.1.56.56,0,0,0,.13-.32.67.67,0,1,0-1.33,0Z"/><path class="cls-4" d="M59.22,144.29c.23-.09.27-.38.27-.61s0-.52.2-.65a.22.22,0,0,1,.19,0c.16.06.1.29.12.46a1.63,1.63,0,0,0,.13.37.79.79,0,0,1-.27.86.48.48,0,0,1-.46-.19.42.42,0,0,1,0-.48Z"/><path class="cls-4" d="M64.1,140.81c.23-.08.27-.37.27-.61s0-.52.2-.65a.25.25,0,0,1,.19,0c.16.06.1.29.12.45a1.32,1.32,0,0,0,.13.38.78.78,0,0,1-.28.85.45.45,0,0,1-.45-.18.46.46,0,0,1,0-.49Z"/><path class="cls-4" d="M68.5,141.77a1.47,1.47,0,0,0,.59.07s.07,0,.09,0a.16.16,0,0,0,.08-.15.36.36,0,0,0-.25-.34.5.5,0,0,0-.43.06.31.31,0,0,0-.14.2.17.17,0,0,0,.11.19,0,0,0,0,0,0-.06Z"/><path class="cls-4" d="M39.89,138.69a1.46,1.46,0,0,0,1.11.65,1.42,1.42,0,0,0,0-.58.53.53,0,0,0-.4-.4c-.27,0-.49.21-.65.43l0-.22Z"/><path class="cls-4" d="M40.53,134.64a.38.38,0,0,0,.28.6.67.67,0,0,0,.16-.39.31.31,0,0,0-.24-.32c-.14,0-.3.11-.26.24Z"/><path class="cls-4" d="M47,138.3a.38.38,0,0,0,.28.6.64.64,0,0,0,.16-.39.32.32,0,0,0-.24-.32.22.22,0,0,0-.26.25Z"/><path class="cls-4" d="M39.76,136.48c-.1-.15-.36-.06-.46.09s-.1.34-.18.5a.62.62,0,0,1-.42.34.31.31,0,0,1-.31,0,.33.33,0,0,1-.08-.19,1.79,1.79,0,0,1,0-1,.9.9,0,0,1,.8-.61.73.73,0,0,1,.63.34.7.7,0,0,1,0,.7Z"/><path class="cls-4" d="M60.35,142.14c-.1-.15-.36-.07-.46.08s-.1.35-.18.51a.68.68,0,0,1-.42.34.34.34,0,0,1-.31,0,.39.39,0,0,1-.08-.2,1.76,1.76,0,0,1,0-1,.93.93,0,0,1,.8-.62.74.74,0,0,1,.63.35.7.7,0,0,1,0,.7Z"/><path class="cls-4" d="M60.06,144.43c-.1-.14-.36-.06-.45.09a3,3,0,0,0-.18.5.64.64,0,0,1-.43.34.31.31,0,0,1-.31-.05.33.33,0,0,1-.08-.19,2,2,0,0,1,0-1.05.91.91,0,0,1,.8-.61.73.73,0,0,1,.63.34.68.68,0,0,1,0,.7Z"/><path class="cls-4" d="M56.58,143.28c-.1-.15-.36-.06-.45.09a4.24,4.24,0,0,0-.18.5.62.62,0,0,1-.42.34.31.31,0,0,1-.31-.05.37.37,0,0,1-.09-.2,1.93,1.93,0,0,1,0-1,.91.91,0,0,1,.8-.61.71.71,0,0,1,.63.34.68.68,0,0,1,0,.7Z"/><path class="cls-4" d="M69.73,121.84c-.1-.15-.36-.07-.45.09a3,3,0,0,0-.18.5.65.65,0,0,1-.43.34.34.34,0,0,1-.31,0,.36.36,0,0,1-.08-.2,1.93,1.93,0,0,1,0-1,.94.94,0,0,1,.8-.62.74.74,0,0,1,.63.35.68.68,0,0,1,0,.7Z"/><path class="cls-4" d="M43.11,134.71l.27.11a.58.58,0,0,0,.12-.41c0-.15-.25-.24-.34-.13a.24.24,0,0,0,0,.16c0,.17,0,.35-.07.52Z"/><path class="cls-4" d="M62,130.67a1.57,1.57,0,0,0,.57.42.62.62,0,0,0,.67-.1.47.47,0,0,0,.12-.32.68.68,0,0,0-.66-.68.69.69,0,0,0-.67.68Z"/><path class="cls-4" d="M45.24,141.62a.46.46,0,0,1-.3-.75,1.32,1.32,0,0,1,.56,0,.84.84,0,0,1-.19.57Z"/><path class="cls-5" d="M64.43,132.49a1,1,0,0,0,.37.18.37.37,0,0,0,.36-.13c.12-.19-.06-.43,0-.65s.22-.42.16-.63a.4.4,0,0,0-.57-.16,1,1,0,0,0-.36.54,1.06,1.06,0,0,0-.08.58.42.42,0,0,0,.42.34Z"/><path class="cls-4" d="M55.35,140.73a2.77,2.77,0,0,0,1.1,2.47,3,3,0,0,0,1.85-2,1.79,1.79,0,0,0-1.44-2.08c-1-.09-1.82,1.14-1.22,1.88Z"/><path class="cls-4" d="M44.86,143.75a.26.26,0,0,1,.28-.21.5.5,0,0,1,.42.41.33.33,0,0,1-.32.35.35.35,0,0,1-.34-.34.38.38,0,0,1,.33-.36Z"/><path class="cls-4" d="M49.94,142.23c.19-.15.13-.44.05-.66s-.18-.49,0-.68a.2.2,0,0,1,.17-.09c.17,0,.19.24.26.39a1.89,1.89,0,0,0,.25.31.77.77,0,0,1,0,.89.45.45,0,0,1-.5,0,.44.44,0,0,1-.17-.45Z"/><path class="cls-4" d="M56,137.47l.28,0a.33.33,0,0,0-.05-.42.3.3,0,0,0-.41,0,.23.23,0,0,0,.14.35Z"/><path class="cls-4" d="M50.92,139.2a.19.19,0,0,1,0-.27.48.48,0,0,1,.27-.15.53.53,0,0,1,.25,0,.38.38,0,0,1,.28.37.48.48,0,0,1-.28.38.29.29,0,0,1-.24,0,.17.17,0,0,1-.11-.19Z"/><path class="cls-4" d="M49.92,131.4a2.74,2.74,0,0,0-.84,2.57,3.08,3.08,0,0,0,2.76-.36,1.73,1.73,0,0,0,.31-2.48c-.67-.68-2.14-.29-2.18.65Z"/><path class="cls-4" d="M43.92,135.91c.19.2.56-.07.53-.34s-.28-.46-.51-.62a.93.93,0,0,0-.17,1.05Z"/><path class="cls-4" d="M47.65,145.21l.28,0a.33.33,0,0,0,0-.42.28.28,0,0,0-.4,0,.23.23,0,0,0,.14.35Z"/><path class="cls-4" d="M49,140.41a7,7,0,0,0,3,.53,1.25,1.25,0,0,0,.48-.1.91.91,0,0,0,.45-.78,1.89,1.89,0,0,0-1.17-1.81,2.5,2.5,0,0,0-2.24.19,1.56,1.56,0,0,0-.78.95.88.88,0,0,0,.5,1,.18.18,0,0,0,0-.32Z"/><path class="cls-4" d="M56.63,125.75A2.87,2.87,0,0,0,59,127.09a2.84,2.84,0,0,0,.22-2.69,1.85,1.85,0,0,0-2.43-.82,1.25,1.25,0,0,0,.19,2.21Z"/><path class="cls-4" d="M67.25,140.19a1.47,1.47,0,0,0,1.12.65,1.42,1.42,0,0,0,0-.58.5.5,0,0,0-.39-.4c-.28,0-.49.21-.65.43l0-.22Z"/><path class="cls-4" d="M70.34,139.2a.59.59,0,0,0,.35.12.58.58,0,0,0,.31-.18,5.57,5.57,0,0,1,.81-.56l-1.64-.26-.13,0c-.13-.08-.08-.28-.15-.41s-.38-.21-.6-.16C67.73,138.05,69.75,138.86,70.34,139.2Z"/><path class="cls-4" d="M51,142.64l.48.1a.75.75,0,0,0-.37-.8c-.3-.13-.72.12-.66.42s.19.48,0,.51Z"/><path class="cls-4" d="M63.4,136.42a.67.67,0,0,1-.38-.13,1.19,1.19,0,0,1,1-.14c.19,0,.42.11.46.29a1.36,1.36,0,0,1-.08.39c-.05.26.12.59-.1.75a.34.34,0,0,1-.42-.07,1.16,1.16,0,0,1-.2-.4c-.09-.32-.19-.63-.28-.94Z"/><path class="cls-4" d="M63.71,131.27c.19.21.57-.06.54-.33s-.28-.47-.51-.63a1,1,0,0,0-.17,1.06Z"/><path class="cls-5" d="M68.7,134.59a.24.24,0,0,1,.09-.33.48.48,0,0,1,.39,0,.4.4,0,0,1,.2.11.32.32,0,0,1,0,.46.35.35,0,0,1-.44-.54Z"/><path class="cls-4" d="M67.89,136.14a.38.38,0,0,0,.29.6.66.66,0,0,0,.15-.39.31.31,0,0,0-.23-.32c-.15,0-.31.11-.27.24Z"/><path class="cls-4" d="M64.47,141.33a1.12,1.12,0,0,0,.63.73l.27-.77a.8.8,0,0,0,.06-.37.46.46,0,0,0-.62-.27.62.62,0,0,0-.32.63Z"/><path class="cls-5" d="M67.21,131a.5.5,0,0,1,0-.54.54.54,0,0,1,.52-.2c.13,0,.26.15.22.27a.32.32,0,0,1-.11.12l-.6.44-.06-.11Z"/><path class="cls-5" d="M69.25,127.83c.23-.08.28-.37.27-.61s0-.51.2-.65a.26.26,0,0,1,.19,0c.16.06.11.29.12.45a1.55,1.55,0,0,0,.13.38.77.77,0,0,1-.27.85.46.46,0,0,1-.46-.18.42.42,0,0,1,0-.48Z"/><path class="cls-5" d="M58.24,146.53c.23-.09.28-.38.27-.61s0-.52.21-.65a.21.21,0,0,1,.19,0c.16.06.1.29.11.46a2.32,2.32,0,0,0,.13.37.77.77,0,0,1-.27.86.48.48,0,0,1-.46-.19.46.46,0,0,1,0-.48Z"/><path class="cls-5" d="M71.31,129.12l.25.12a.33.33,0,0,0,.1-.4.3.3,0,0,0-.4-.1.23.23,0,0,0,0,.38Z"/><path class="cls-4" d="M67.12,138c-.1-.14-.36-.06-.45.09a3,3,0,0,0-.18.5.66.66,0,0,1-.43.35.35.35,0,0,1-.31-.06.33.33,0,0,1-.08-.19,1.93,1.93,0,0,1,0-1,.93.93,0,0,1,.8-.62.71.71,0,0,1,.63.34.68.68,0,0,1,0,.7Z"/><path class="cls-4" d="M68.73,142.48a.45.45,0,0,0,.56.24.63.63,0,0,0,.39-.51c0-.1,0-.22-.11-.25s-.13,0-.19,0l-.72.43Z"/><path class="cls-4" d="M60.32,133.3a.73.73,0,0,1,.85-.8,1.69,1.69,0,0,1-.16,1,.65.65,0,0,1-.92.23l-.09-.6Z"/><path class="cls-5" d="M70.47,136.22l.28.1a.56.56,0,0,0,.11-.41c0-.14-.24-.24-.34-.13a.3.3,0,0,0,0,.16l-.07.53Z"/><path class="cls-4" d="M44.78,139.47a1.83,1.83,0,0,0,.57.42.61.61,0,0,0,.67-.11.45.45,0,0,0,.12-.31.69.69,0,0,0-.66-.69.69.69,0,0,0-.67.69Z"/><path class="cls-4" d="M54.84,129.61l.48.1a.73.73,0,0,0,.09-.35.47.47,0,0,0-.63.14Z"/><path class="cls-4" d="M32.2,137.68a.24.24,0,0,1,.1-.33.5.5,0,0,1,.38,0,.43.43,0,0,1,.2.11.31.31,0,0,1,0,.46.36.36,0,0,1-.48-.06.37.37,0,0,1,0-.48Z"/><path class="cls-4" d="M57.53,132.56l.48.1a1.06,1.06,0,0,0,.09-.35.47.47,0,0,0-.63.14Z"/><path class="cls-4" d="M55.23,145.4c.06.18.33.17.46,0A4.46,4.46,0,0,0,56,145a.69.69,0,0,1,.51-.2.3.3,0,0,1,.28.14.37.37,0,0,1,0,.21,1.86,1.86,0,0,1-.34,1,.94.94,0,0,1-1,.37A.73.73,0,0,1,55,146a.71.71,0,0,1,.22-.67Z"/><path class="cls-4" d="M49.12,138a1.14,1.14,0,0,0-.3-.28.37.37,0,0,0-.39,0c-.17.15-.07.43-.15.63s-.34.34-.34.57.27.36.49.3a.93.93,0,0,0,.51-.41,1.09,1.09,0,0,0,.25-.52.43.43,0,0,0-.3-.46Z"/><path class="cls-4" d="M59.49,140.1a5.58,5.58,0,0,0-2.47.3,1.19,1.19,0,0,0-.35.19.76.76,0,0,0-.15.71,1.59,1.59,0,0,0,1.37,1.13,2,2,0,0,0,1.69-.68,1.28,1.28,0,0,0,.37-.93.75.75,0,0,0-.66-.68.16.16,0,0,0,.09.25Z"/><path class="cls-4" d="M57,145.46a.6.6,0,0,0,.07.35.67.67,0,0,0,.31.17,5.7,5.7,0,0,1,.91.4c-.19-.5-.38-1-.58-1.51a.28.28,0,0,1,0-.13c0-.14.2-.2.29-.33s0-.42-.15-.58C56.73,142.69,57,144.79,57,145.46Z"/><path class="cls-4" d="M59.53,140.29l.25.14a.35.35,0,0,0,.12-.4.29.29,0,0,0-.39-.12.22.22,0,0,0,0,.37Z"/><path class="cls-4" d="M59.51,144.66a.43.43,0,0,0,.07.6.68.68,0,0,0,.65.07c.09,0,.19-.12.16-.22s-.08-.1-.14-.14l-.74-.39Z"/><path class="cls-4" d="M60.23,141.8a1.37,1.37,0,0,0,0,1.26,1.66,1.66,0,0,0,.53-.27.5.5,0,0,0,.15-.53c-.1-.25-.43-.31-.7-.33l.17-.15Z"/><path class="cls-4" d="M61.62,140.36a.67.67,0,0,1-.08-.39,1.1,1.1,0,0,1,.63.77c.07.18.11.41,0,.53s-.26.08-.39.12-.47.41-.72.3a.34.34,0,0,1-.15-.39,1.07,1.07,0,0,1,.27-.37l.69-.7Z"/><path class="cls-4" d="M57.76,143.69a1.06,1.06,0,0,0-.34.9l.82-.16a.67.67,0,0,0,.36-.14.42.42,0,0,0-.07-.64.63.63,0,0,0-.72,0Z"/><path class="cls-4" d="M62.07,144.26c.08-.16-.12-.33-.3-.34s-.36.09-.54.1a.7.7,0,0,1-.52-.19.29.29,0,0,1-.11-.28.38.38,0,0,1,.14-.17,2,2,0,0,1,.94-.5.92.92,0,0,1,1,.37.7.7,0,0,1,0,.7.75.75,0,0,1-.63.34Z"/><path class="cls-4" d="M53.52,136.27a1.63,1.63,0,0,0-.1.69.59.59,0,0,0,.43.51.6.6,0,0,0,.35-.05.67.67,0,0,0,.28-.9.71.71,0,0,0-.95-.22Z"/><path class="cls-4" d="M51.39,141.06a1.37,1.37,0,0,0,0,1.26,1.77,1.77,0,0,0,.53-.27.5.5,0,0,0,.15-.53c-.1-.25-.43-.31-.7-.34l.17-.14Z"/><path class="cls-4" d="M62.41,140.05c.24-.07.3-.36.32-.59s0-.52.25-.64a.21.21,0,0,1,.19,0c.15.07.08.29.08.46a1.86,1.86,0,0,0,.1.39.79.79,0,0,1-.33.83.46.46,0,0,1-.44-.22.42.42,0,0,1,0-.48Z"/><path class="cls-4" d="M45.05,133l.28,0a.33.33,0,0,0-.15-.39.3.3,0,0,0-.39.13A.24.24,0,0,0,45,133Z"/><path class="cls-4" d="M56.55,141.79l0,.29A.63.63,0,0,0,57,142c.11-.1.09-.33-.06-.35a.3.3,0,0,0-.16,0l-.5.21Z"/><ellipse class="cls-6" cx="91.57" cy="199.5" rx="42.08" ry="9.08"/><path class="cls-7" d="M113.51,154.85s-1.92,2.81-4.51,6.43c-4.18,5.86-10.1,13.8-12.34,15.17-1.09.66-1.71-1.77-2-5.51-.82-8.82-.08-24.94-.08-24.94S108.54,148.9,113.51,154.85Z"/><path class="cls-8" d="M113.51,154.85s-1.92,2.81-4.51,6.43c0,0-3.8-.6-10.21,3.13a9.43,9.43,0,0,0-4.18,6.53c-.82-8.82-.08-24.94-.08-24.94S108.54,148.9,113.51,154.85Z"/><path class="cls-9" d="M140,139.6h0c-4.06-1.07-9.12-4.91-13-10.51-8.41-12.09-17.3-37.36-6.62-42.55,1-.51,6.12,5.67,11.55,13.91,6.39,9.7,13.28,22.26,14.71,30.11S144.65,140.82,140,139.6Z"/><path class="cls-10" d="M134.41,136.8s3.66-13.61,8.08-13.36,5.08,12.74,2.18,15.26S136,138.37,134.41,136.8Z"/><path class="cls-11" d="M140,139.6h0c-4.06-1.07-9.12-4.91-13-10.51-8.41-12.09-17.3-37.36-6.62-42.55,1-.51,6.12,5.67,11.55,13.91h0s-2.5,18.1-.71,24.54,7.76,10.38,7.76,10.38Z"/><path class="cls-12" d="M75.66,128.06c-.58,16.41,6.84,25.36,23.35,29.21,16.18,3.77,30.54-10.71,30.58-31.88,0-13.51-.87-25.73-5.89-34.43h0v0a24.35,24.35,0,0,0-13.06-11c-4.79-1.79-9.56-.23-14,3.33C85.16,92.57,76.11,115.41,75.66,128.06Z"/><path class="cls-13" d="M92,101a190.78,190.78,0,0,0-7,19.78c-2.52,9.59,1,20.25,1,20.25l-9.41-2.89S74,125,77.26,117.72a76.39,76.39,0,0,0,3.59-9.07Z"/><path class="cls-14" d="M129.74,128.17s-.65-12.68-12.24-15.54c-13.88-3.44-27.16,9.12-29,19.42s-1.14,20.53,11.88,24.18C100.4,156.23,125.1,161.77,129.74,128.17Z"/><path class="cls-15" d="M129.4,129.47s-.66-12.67-12.24-15.54c-13.89-3.43-27.16,9.13-29,19.42S87,153.89,100.05,157.53C100.05,157.53,124.75,163.08,129.4,129.47Z"/><path class="cls-16" d="M82,112.43a2.91,2.91,0,0,0,2.25-.85c3.9-3,9.81-13.12,11.36-19.15.6-2.34.55-4.07-.54-4.54-1.77-.77-7.13,4.36-11.21,12.43C81.49,105,79.42,111.8,82,112.43Z"/><path class="cls-17" d="M84.24,111.58c3.9-3,9.81-13.12,11.36-19.15-2.42,1.83-5.78,5.95-8.55,11.44A32.84,32.84,0,0,0,84.24,111.58Z"/><path class="cls-18" d="M128,128.13c-2.59,2.79-8-2.95-16.38-4.06s-13.84,2-15.88.26,8.42-11.68,21-9.06C126.88,117.36,128.92,127.18,128,128.13Z"/><path class="cls-19" d="M111.39,155.09a15.13,15.13,0,0,1-10,1.3c-5.69-1.2-6.87-4.31-6.87-4.31a12.45,12.45,0,0,1,6.56,1.3A18.7,18.7,0,0,0,111.39,155.09Z"/><path class="cls-4" d="M102.14,101c1,.27.68,8.06-.2,8.17s-2.43-.25-2.41-3.49S101.2,100.76,102.14,101Z"/><path class="cls-20" d="M93.55,190.74c-5.36.13-27.65-47.59-22.3-51.35,9.12-6.42,21.56,6.42,26.2,13.7a12.11,12.11,0,0,1,1.83,3.85C99.82,161.14,98.92,190.61,93.55,190.74Z"/><path class="cls-21" d="M92,91.68c3,2.93-5.63,19.1-13.14,21.79s-23.69-.6-26.27-1.64S49,102.41,51.45,99.19,87.9,87.68,92,91.68Z"/><path class="cls-22" d="M79.82,91.18a46.51,46.51,0,0,0,28.59,8c17-.88,18.24-6.16,18.24-6.16s-5.6-8-10.16-9.38c-1.79-.54-20.51-3.77-26.63,7C85.85,90.63,79.82,91.18,79.82,91.18Z"/><path class="cls-23" d="M120.57,4.23s8.64,5.63,12.48,18.67-16.37-2.61-16.37-2.61Z"/><path class="cls-24" d="M126.65,20.11S124.3,2.72,118.29.4s-13.81,6.22-13.81,6.22Z"/><path class="cls-25" d="M78.52,10.48C51.56,26.35,53,66,63.38,80.4c12,16.73,75.2,6.21,84.12-21.26C156.52,31.35,112-9.25,78.52,10.48Z"/><path class="cls-26" d="M70.34,52S67.06,66.32,58.61,69.92c0,0-2-7-2-11.39S70.34,52,70.34,52Z"/><path class="cls-27" d="M94.39,14.28c-20.83,10.08-24,50.84-10.16,64.38s60.85-.78,64.15-25C151.32,32.09,119.32,2.23,94.39,14.28Z"/><path class="cls-28" d="M98.79,79.28s-9.86,1.52-14.21-4.12-2.35-10-1-10.32S89.41,73,92.92,76,98.79,79.28,98.79,79.28Z"/><path class="cls-29" d="M75.34,26.27s2.8,24.64-12.89,33.35c0,0-7.7.81-12.17-3.72,0,0,7,6.35,14.32-.27s5.58-24.83,0-30.77S51,20.49,51,20.49l3.22-2.81S66.05,15.33,75.34,26.27Z"/><path class="cls-30" d="M54.18,17.68s8.73-.78,14.83,9c6.47,10.43,1.76,28.45-6.1,31.18S47.09,31.47,47.09,31.47l4.57-11.59A5.33,5.33,0,0,1,54.18,17.68Z"/><path class="cls-31" d="M42.9,42.52c1.12,5.63,3.49,10.23,6.65,13.14h0l.88.76h0A11.76,11.76,0,0,0,59.33,59C70,57.68,71.39,42.76,70.14,34.31c-1.46-9.76-10.07-15.62-16.93-14.76C45.05,20.57,40.7,31.49,42.9,42.52Z"/><path class="cls-32" d="M68.41,46.22s-1.13,9.14-8.06,11.12S47.78,54.46,46,47.59c0,0,2.17,5.92,11.2,4.41S68.41,46.22,68.41,46.22Z"/><path class="cls-33" d="M67.13,28.94c-.08,1.7-12.81-1.84-16.85-1.32S44.51,33,43.87,32.84s1.07-11.36,8.59-12.19S67.18,27.75,67.13,28.94Z"/><path class="cls-34" d="M131.78,45.59c4.33,2.32,10.64-2.85,9.06-9.05s-9-11.16-12.71-9.2S124.59,41.74,131.78,45.59Z"/><path class="cls-35" d="M92.76,59.43c6.81,4.57,14.18-2.94,14.1-9.61s-6.42-13.23-12.72-11.56C87.25,40.09,85.75,54.74,92.76,59.43Z"/><path class="cls-36" d="M113.55,61.74c-.64,1.1,7.6,6.51,11.56,4.94,4.63-1.85,3.91-11.36,3-12S114.62,59.86,113.55,61.74Z"/><path class="cls-37" d="M79.82,49.42c3.72,4.91,14.27-11.94,25.67-17.6,13-6.46,31.89.38,33.17-1.61S123.82,10.62,103,13.75,76.39,44.88,79.82,49.42Z"/><path class="cls-38" d="M51.09,57.44s-.75-4.87,2.46-6.52c0,0,4.82-.24,6,4.28,0,0-9.51,29.52-1.74,34.24,7.24,4.4,26.31-4.63,26.31-4.63L85.68,86S69.5,95.83,59.27,92.79,51.09,57.44,51.09,57.44Z"/><path class="cls-39" d="M79.37,85.24c-1.63,3.23,4.21,4.72,8.46,4.05,4.77-.76,12.49-4.74,10.7-9.13S83.18,77.67,79.37,85.24Z"/><path class="cls-40" d="M79.82,85.63c.07.78,16.65-3.48,16.23-6.41S79.27,79.62,79.82,85.63Z"/><path class="cls-41" d="M39.2,95.9a5.28,5.28,0,0,1,3.45-3.07l1.71,6Z"/><path class="cls-42" d="M39.85,80.4s8.79-5.21,27.28-4.79c0,0,7.7,27.25,8.69,46.84A86.92,86.92,0,0,1,53.17,125,248.5,248.5,0,0,1,39.85,80.4Z"/><path class="cls-43" d="M67.13,75.61l4.2-1.52s6.33,27.38,6.76,47.77l-2.27.59Z"/><path class="cls-44" d="M47.83,110.45l2.23,6s6.19-7.3,5.51-14.25Z"/><path class="cls-45" d="M39.85,80.4s6.46-5.12,31.48-6.31l-4.2,1.52S55.75,75.4,39.85,80.4Z"/><path class="cls-46" d="M41.28,99.2s.52,10.4,4.55,12.63c0,0,11.53-6.3,9.92-12.79C54.61,94.46,41.28,99.2,41.28,99.2Z"/><path class="cls-47" d="M39.2,95.9s0,8.54,5.07,13.81c0,0,6.74-2.61,9-5.26,3.64-4.26,2.14-6.71.91-7.7C52.23,95.17,39.2,95.9,39.2,95.9Z"/><path class="cls-48" d="M70,83.65a3.68,3.68,0,0,1,2.57-.88s2.48,6.77,1.94,12.3l-1.94.52Z"/><path class="cls-49" d="M70,83.65s3,6.59,3.53,11.68l1.72-.62S74,86,72.61,82.77A4,4,0,0,0,70,83.65Z"/><path class="cls-50" d="M58.35,87.49c.5,2.47-.61,4.76-2.49,5.13s-3.81-1.35-4.32-3.82S52.15,84,54,83.68,57.84,85,58.35,87.49Z"/><path class="cls-51" d="M58,87.64c.4,1.92-.47,3.7-1.93,4s-3-1-3.36-3,.47-3.71,1.93-4S57.64,85.72,58,87.64Z"/><path class="cls-52" d="M56.25,122.34v-2.15l12.52-1.65.91,1.91A130.3,130.3,0,0,1,56.25,122.34Z"/><path class="cls-53" d="M67.76,79,50.33,117.64l1.6,4.22s14.13-8.62,20.12-19C72.05,102.81,68.4,82.44,67.76,79Z"/><path class="cls-54" d="M113.51,79.21a28.35,28.35,0,0,0,14.71-9.29,16,16,0,0,1,14.05-6.22S131,79.21,113.51,79.21Z"/><path class="cls-4" d="M75.82,18.65c0,1.63,10.28-6.47,9-7.14S75.85,16.77,75.82,18.65Z"/><path class="cls-55" d="M94.53,134.29l-.26-.48C94.32,133.89,94.41,134.05,94.53,134.29Z"/><path class="cls-56" d="M93.55,190.74c-5.36.13-27.65-47.59-22.3-51.35,0,0,6.66,29.94,14.77,37.69S99.38,164.52,98,155.68c-.14-.89-.31-1.75-.5-2.59a12.11,12.11,0,0,1,1.83,3.85C99.82,161.14,98.92,190.61,93.55,190.74Z"/><path class="cls-4" d="M80.81,147.58c-.82,1.3,1.26,9.15,2.39,9s1.37-4.3.81-5.62S81,147.29,80.81,147.58Z"/><path class="cls-4" d="M83.44,157.88c-1,.46.19,2.83.86,2.75S84.3,157.45,83.44,157.88Z"/><path class="cls-4" d="M110.22,4.23c.64,1.3,4.93-1.43,4.29-2.56S109.57,2.92,110.22,4.23Z"/><path class="cls-4" d="M40.39,98c0,.79,4.29-.11,4-.77S40.39,96.65,40.39,98Z"/><path class="cls-57" d="M52.45,54.89c-1.12-.37-1.64,14.83-.73,15S54.18,55.44,52.45,54.89Z"/><path class="cls-58" d="M154.3,132.47s-3.64-4.51-8.58-4.91-6.65,1-7.42,4.4,6.79,15.24,15.9,24c3.76.13,4.66-4.38,5.06-7.26C159.14,146.22,158,138.15,154.3,132.47Z"/><path class="cls-59" d="M142.09,127.7s9.84,12,13.12,19C157,150.48,158,153,158,153s-2.1,6-6.32,1.25c-6-6.71-14-16.84-12.92-21.95C139.72,127.94,140.45,127.09,142.09,127.7Z"/><path class="cls-60" d="M150.43,138.77s-1,6.68-5,7.86L144,130.77S149.09,136.79,150.43,138.77Z"/><path class="cls-61" d="M146.17,134.45c.69,1.5,0,11.57-1.08,12.75s-3.76-.61-4.58-2.6-4.61-12.9-.62-16.63C139.89,128,143.28,128.17,146.17,134.45Z"/><path class="cls-4" d="M144.35,135.88c.47.06,1.15,3.47.8,4.1s-1.12.6-1.52-.16S143.65,135.79,144.35,135.88Z"/></g></g></g></svg>